<svg width="840px" height="1188px" version="1.1" xmlns="http://www.w3.org/2000/svg" xmlns:xlink="http://www.w3.org/1999/xlink" overflow="visible" id="i1uttrpn">
   <desc>Engraved by Verovio 6.3.0-425dd7b</desc>
   <defs>
      <g id="E050-i1uttrpn">
         <path transform="scale(1,-1)" d="M441 -245c-23 -4 -48 -6 -76 -6c-59 0 -102 7 -130 20c-88 42 -150 93 -187 154c-26 44 -43 103 -48 176c0 6 -1 13 -1 19c0 54 15 111 45 170c29 57 65 106 110 148s96 85 153 127c-3 16 -8 46 -13 92c-4 43 -5 73 -5 89c0 117 16 172 69 257c34 54 64 82 89 82 c21 0 43 -30 69 -92s39 -115 41 -159v-15c0 -109 -21 -162 -67 -241c-13 -20 -63 -90 -98 -118c-13 -9 -25 -19 -37 -29l31 -181c8 1 18 2 28 2c58 0 102 -12 133 -35c59 -43 92 -104 98 -184c1 -7 1 -15 1 -22c0 -123 -87 -209 -181 -248c8 -57 17 -110 25 -162 c5 -31 6 -58 6 -80c0 -30 -5 -53 -14 -70c-35 -64 -88 -99 -158 -103c-5 0 -11 -1 -16 -1c-37 0 -72 10 -108 27c-50 24 -77 59 -80 105v11c0 29 7 55 20 76c18 28 45 42 79 44h6c49 0 93 -42 97 -87v-9c0 -51 -34 -86 -105 -106c17 -24 51 -36 102 -36c62 0 116 43 140 85 c9 16 13 41 13 74c0 20 -1 42 -5 67c-8 53 -18 106 -26 159zM461 939c-95 0 -135 -175 -135 -286c0 -24 2 -48 5 -71c50 39 92 82 127 128c40 53 60 100 60 140v8c-4 53 -22 81 -55 81h-2zM406 119l54 -326c73 25 110 78 110 161c0 7 0 15 -1 23c-7 95 -57 142 -151 142h-12 zM382 117c-72 -2 -128 -47 -128 -120v-7c2 -46 43 -99 75 -115c-3 -2 -7 -5 -10 -10c-70 33 -116 88 -123 172v11c0 68 44 126 88 159c23 17 49 29 78 36l-29 170c-21 -13 -52 -37 -92 -73c-50 -44 -86 -84 -109 -119c-45 -69 -67 -130 -67 -182v-13c5 -68 35 -127 93 -176 s125 -73 203 -73c25 0 50 3 75 9c-19 111 -36 221 -54 331z" />
      </g>
      <g id="E083-i1uttrpn">
         <path transform="scale(1,-1)" d="M208 250c97 0 177 -52 177 -116c0 -69 -40 -111 -118 -125c56 -5 125 -44 125 -116c0 -31 -10 -57 -31 -78c-19 -21 -45 -38 -78 -49l-50 -11c-15 -3 -36 -7 -55 -7c-50 0 -86 16 -113 38c-16 10 -23 18 -34 34c-7 13 -11 25 -11 38c0 43 27 83 68 83l3 -2 c61 0 75 -42 75 -70c0 -19 -24 -42 -26 -57c7 -17 20 -25 37 -25c44 0 94 29 94 78c0 75 -34 125 -138 125v36c84 0 131 22 131 98c0 54 -37 88 -87 88c-26 0 -43 -7 -51 -22c15 -22 44 -16 44 -70c0 -37 -37 -62 -71 -62c-22 0 -69 15 -69 76c0 79 101 116 178 116z" />
      </g>
      <g id="E084-i1uttrpn">
         <path transform="scale(1,-1)" d="M20 -78c84 97 114 180 134 329h170c-13 -32 -82 -132 -99 -151l-84 -97c-33 -36 -59 -63 -80 -81h162v102l127 123v-225h57v-39h-57v-34c0 -43 19 -65 57 -65v-34h-244v36c48 0 60 26 60 70v27h-203v39z" />
      </g>
      <g id="E0A4-i1uttrpn">
         <path transform="scale(1,-1)" d="M0 -39c0 68 73 172 200 172c66 0 114 -37 114 -95c0 -84 -106 -171 -218 -171c-64 0 -96 30 -96 94z" />
      </g>
      <g id="E0A3-i1uttrpn">
         <path transform="scale(1,-1)" d="M278 64c0 22 -17 39 -43 39c-12 0 -26 -3 -41 -10c-85 -43 -165 -94 -165 -156c5 -25 15 -32 49 -32c67 11 200 95 200 159zM0 -36c0 68 73 174 200 174c66 0 114 -39 114 -97c0 -84 -106 -173 -218 -173c-64 0 -96 32 -96 96z" />
      </g>
      <g id="E4E3-i1uttrpn">
         <path transform="scale(1,-1)" d="M0 -115v105c0 9 1 10 10 10h280c9 0 10 -1 10 -10v-105c0 -9 -1 -10 -10 -10h-280c-9 0 -10 1 -10 10z" />
      </g>
   </defs>
   <style type="text/css">#i1uttrpn g.ending, #i1uttrpn g.fing, #i1uttrpn g.reh, #i1uttrpn g.tempo {font-weight:bold;}#i1uttrpn g.dir, #i1uttrpn g.dynam, #i1uttrpn g.mNum {font-style:italic;}#i1uttrpn g.label {font-weight:normal;}#i1uttrpn ellipse, #i1uttrpn path, #i1uttrpn polygon, #i1uttrpn polyline, #i1uttrpn rect {stroke:currentColor}#i1uttrpn g.cursor {fill:dodgerblue; color:dodgerblue;}#i1uttrpn g.cursor.chord {fill:limegreen; color:limegreen;}</style>
   <svg class="definition-scale" color="black" font-family="Times, serif" viewBox="0 0 21000 29700">
      <g class="page-margin" transform="translate(1100, 1200)">
         <g id="sjnuuup" class="mdiv pageMilestone" />
         <g id="t1jo4npk" class="score pageMilestone" />
         <g id="h11jqyyf" class="system">
            <g id="e1p93ne9" class="label">
               <text x="1069" y="990" text-anchor="end" font-size="0px">
                  <tspan id="f1td3ro6" class="text">
                     <tspan font-size="378px">Voice</tspan>
                  </tspan>
               </text>
            </g>
            <g id="vleg4al" class="section systemMilestone" />
            <g id="l198fazt" class="section systemMilestone" />
            <g id="k8ylkad" class="measure">
               <g id="tdfcupy" class="staff">
                  <path d="M1249 540 L4636 540" stroke-width="13" />
                  <path d="M1249 720 L4636 720" stroke-width="13" />
                  <path d="M1249 900 L4636 900" stroke-width="13" />
                  <path d="M1249 1080 L4636 1080" stroke-width="13" />
                  <path d="M1249 1260 L4636 1260" stroke-width="13" />
                  <g id="e1fofgi5" class="clef">
                     <use xlink:href="#E050-i1uttrpn" transform="translate(1339, 1080) scale(0.72, 0.72)" />
                  </g>
                  <g id="fiwhvme" class="keySig" />
                  <g id="g15j2u4t" class="meterSig">
                     <use xlink:href="#E083-i1uttrpn" transform="translate(1976, 720) scale(0.72, 0.72)" />
                     <use xlink:href="#E084-i1uttrpn" transform="translate(1970, 1080) scale(0.72, 0.72)" />
                  </g>
                  <g id="x1rzjh67" class="layer">
                     <g id="yfy6572" class="note">
                        <g class="notehead">
                           <use xlink:href="#E0A4-i1uttrpn" transform="translate(2529, 1260) scale(0.72, 0.72)" />
                        </g>
                        <g id="z1e2fge3" class="stem">
                           <path d="M2746 1232 L2746 630" stroke-width="18" />
                        </g>
                        <g id="zn2ycpq" class="verse">
                           <title class="labelAttr">1</title>
                           <g id="a8ld6f5" class="syl">
                              <text x="2445" y="2100" font-size="0px">
                                 <tspan id="bzjhhqk" class="text">
                                    <tspan font-size="378px">O</tspan>
                                 </tspan>
                              </text>
                           </g>
                        </g>
                     </g>
                     <g id="ciraw4k" class="note">
                        <g class="notehead">
                           <use xlink:href="#E0A4-i1uttrpn" transform="translate(3227, 1260) scale(0.72, 0.72)" />
                        </g>
                        <g id="a1xbwec9" class="stem">
                           <path d="M3444 1232 L3444 630" stroke-width="18" />
                        </g>
                        <g id="dsr54ne" class="verse">
                           <title class="labelAttr">1</title>
                           <g id="et2u0fu" class="syl">
                              <text x="3143" y="2100" font-size="0px">
                                 <tspan id="fkb9pd8" class="text">
                                    <tspan font-size="378px">ces</tspan>
                                 </tspan>
                              </text>
                              <rect x="3692" y="2005" height="20" width="84" />
                           </g>
                        </g>
                     </g>
                     <g id="g1t8ytzj" class="note">
                        <g class="notehead">
                           <use xlink:href="#E0A4-i1uttrpn" transform="translate(3925, 1260) scale(0.72, 0.72)" />
                        </g>
                        <g id="b1wdggt" class="stem">
                           <path d="M4142 1232 L4142 630" stroke-width="18" />
                        </g>
                        <g id="hhrj3hv" class="verse">
                           <title class="labelAttr">1</title>
                           <g id="id8ax4d" class="syl">
                              <text x="3841" y="2100" font-size="0px">
                                 <tspan id="jgo7s8s" class="text">
                                    <tspan font-size="378px">sa</tspan>
                                 </tspan>
                              </text>
                              <rect x="4401" y="2005" height="20" width="84" />
                           </g>
                        </g>
                     </g>
                  </g>
               </g>
               <g id="u10o1qh" class="dir">
                  <text x="2529" y="418" font-size="0px">
                     <tspan id="vh2r32f" class="text">
                        <tspan font-size="378px">Andante</tspan>
                     </tspan>
                  </text>
               </g>
               <g id="w10j6mow" class="tempo" xml:lang="it">
                  <text x="1967" y="495" font-size="0px" />
               </g>
               <g id="s1tqmj9x" class="barLine">
                  <path d="M4623 540 L4623 1260" stroke-width="27" />
               </g>
            </g>
            <g id="kfwlpwr" class="measure">
               <g id="t12v5nqj" class="staff">
                  <path d="M4636 540 L6587 540" stroke-width="13" />
                  <path d="M4636 720 L6587 720" stroke-width="13" />
                  <path d="M4636 900 L6587 900" stroke-width="13" />
                  <path d="M4636 1080 L6587 1080" stroke-width="13" />
                  <path d="M4636 1260 L6587 1260" stroke-width="13" />
                  <g id="usns07m" class="layer">
                     <g id="v1ujeyus" class="note">
                        <g class="notehead">
                           <use xlink:href="#E0A3-i1uttrpn" transform="translate(4813, 990) scale(0.72, 0.72)" />
                        </g>
                        <g id="c1j37vx2" class="stem">
                           <path d="M5030 962 L5030 360" stroke-width="18" />
                        </g>
                        <g id="wee5w9f" class="verse">
                           <title class="labelAttr">1</title>
                           <g id="xdx2t7l" class="syl">
                              <text x="4729" y="2100" font-size="0px">
                                 <tspan id="y1cyvzm0" class="text">
                                    <tspan font-size="378px">te</tspan>
                                 </tspan>
                              </text>
                           </g>
                        </g>
                     </g>
                     <g id="zzt0m4w" class="note">
                        <g class="notehead">
                           <use xlink:href="#E0A4-i1uttrpn" transform="translate(5876, 1080) scale(0.72, 0.72)" />
                        </g>
                        <g id="d1awriku" class="stem">
                           <path d="M6093 1052 L6093 450" stroke-width="18" />
                        </g>
                        <g id="a10dqad4" class="verse">
                           <title class="labelAttr">1</title>
                           <g id="b1ktaqgz" class="syl">
                              <text x="5792" y="2100" font-size="0px">
                                 <tspan id="c11r601" class="text">
                                    <tspan font-size="378px">di</tspan>
                                 </tspan>
                              </text>
                           </g>
                        </g>
                     </g>
                  </g>
               </g>
               <g id="sfcbiwm" class="barLine">
                  <path d="M6574 540 L6574 1260" stroke-width="27" />
               </g>
            </g>
            <g id="d1ftdihd" class="measure">
               <g id="mh8ghzz" class="staff">
                  <path d="M6587 540 L8871 540" stroke-width="13" />
                  <path d="M6587 720 L8871 720" stroke-width="13" />
                  <path d="M6587 900 L8871 900" stroke-width="13" />
                  <path d="M6587 1080 L8871 1080" stroke-width="13" />
                  <path d="M6587 1260 L8871 1260" stroke-width="13" />
                  <g id="n14fb0uo" class="layer">
                     <g id="o1g2qsbt" class="note">
                        <g class="notehead">
                           <use xlink:href="#E0A4-i1uttrpn" transform="translate(6764, 1170) scale(0.72, 0.72)" />
                        </g>
                        <g id="e3a5rdo" class="stem">
                           <path d="M6981 1142 L6981 540" stroke-width="18" />
                        </g>
                        <g id="p18stph4" class="verse">
                           <title class="labelAttr">1</title>
                           <g id="q1i046sd" class="syl">
                              <text x="6680" y="2100" font-size="0px">
                                 <tspan id="r1pif0em" class="text">
                                    <tspan font-size="378px">pia</tspan>
                                 </tspan>
                              </text>
                              <rect x="7218" y="2005" height="20" width="84" />
                           </g>
                        </g>
                     </g>
                     <g id="sfjxrcm" class="note">
                        <g class="notehead">
                           <use xlink:href="#E0A4-i1uttrpn" transform="translate(7462, 1260) scale(0.72, 0.72)" />
                        </g>
                        <g id="f1l7sj4p" class="stem">
                           <path d="M7679 1232 L7679 630" stroke-width="18" />
                        </g>
                        <g id="t1g3uh6z" class="verse">
                           <title class="labelAttr">1</title>
                           <g id="u59tmbr" class="syl">
                              <text x="7378" y="2100" font-size="0px">
                                 <tspan id="v111lv76" class="text">
                                    <tspan font-size="378px">gar</tspan>
                                 </tspan>
                              </text>
                              <rect x="7926" y="2005" height="20" width="84" />
                           </g>
                        </g>
                     </g>
                     <g id="wd67xae" class="note">
                        <g class="notehead">
                           <use xlink:href="#E0A4-i1uttrpn" transform="translate(8160, 1350) scale(0.72, 0.72)" />
                        </g>
                        <g id="glsltes" class="stem">
                           <path d="M8377 1322 L8377 720" stroke-width="18" />
                        </g>
                        <g id="xk6bxam" class="verse">
                           <title class="labelAttr">1</title>
                           <g id="ycdid20" class="syl">
                              <text x="8076" y="2100" font-size="0px">
                                 <tspan id="z1n4kba2" class="text">
                                    <tspan font-size="378px">mi,</tspan>
                                 </tspan>
                              </text>
                           </g>
                        </g>
                     </g>
                  </g>
               </g>
               <g id="l12e5o6i" class="barLine">
                  <path d="M8858 540 L8858 1260" stroke-width="27" />
               </g>
            </g>
            <g id="a1bytlud" class="measure">
               <g id="jn3ox61" class="staff">
                  <path d="M8871 540 L11155 540" stroke-width="13" />
                  <path d="M8871 720 L11155 720" stroke-width="13" />
                  <path d="M8871 900 L11155 900" stroke-width="13" />
                  <path d="M8871 1080 L11155 1080" stroke-width="13" />
                  <path d="M8871 1260 L11155 1260" stroke-width="13" />
                  <g class="ledgerLines below">
                     <path d="M9000 1440 L9322 1440" stroke-width="22" />
                     <path d="M9698 1440 L10020 1440" stroke-width="22" />
                     <path d="M10396 1440 L10718 1440" stroke-width="22" />
                     <path d="M10396 1620 L10718 1620" stroke-width="22" />
                  </g>
                  <g id="koa4rr2" class="layer">
                     <g id="l1cylcoj" class="note">
                        <g class="notehead">
                           <use xlink:href="#E0A4-i1uttrpn" transform="translate(9048, 1440) scale(0.72, 0.72)" />
                        </g>
                        <g id="h10vjyp" class="stem">
                           <path d="M9265 1412 L9265 810" stroke-width="18" />
                        </g>
                        <g id="m19h1jsj" class="verse">
                           <title class="labelAttr">1</title>
                           <g id="n15u4y3v" class="syl">
                              <text x="8964" y="2100" font-size="0px">
                                 <tspan id="o16mf7wq" class="text">
                                    <tspan font-size="378px">o</tspan>
                                 </tspan>
                              </text>
                           </g>
                        </g>
                     </g>
                     <g id="p17o42vv" class="note">
                        <g class="notehead">
                           <use xlink:href="#E0A4-i1uttrpn" transform="translate(9746, 1530) scale(0.72, 0.72)" />
                        </g>
                        <g id="igl0ni" class="stem">
                           <path d="M9963 1502 L9963 900" stroke-width="18" />
                        </g>
                        <g id="q1k3djpx" class="verse">
                           <title class="labelAttr">1</title>
                           <g id="r5wf5np" class="syl">
                              <text x="9662" y="2100" font-size="0px">
                                 <tspan id="s1bxtu1l" class="text">
                                    <tspan font-size="378px">la</tspan>
                                 </tspan>
                              </text>
                              <rect x="10106" y="2005" height="20" width="84" />
                           </g>
                        </g>
                     </g>
                     <g id="tymzch7" class="note">
                        <g class="notehead">
                           <use xlink:href="#E0A4-i1uttrpn" transform="translate(10444, 1620) scale(0.72, 0.72)" />
                        </g>
                        <g id="jk1ygnq" class="stem">
                           <path d="M10661 1592 L10661 900" stroke-width="18" />
                        </g>
                        <g id="u6241cw" class="verse">
                           <title class="labelAttr">1</title>
                           <g id="vqs2uh2" class="syl">
                              <text x="10360" y="2100" font-size="0px">
                                 <tspan id="w1suer78" class="text">
                                    <tspan font-size="378px">scia</tspan>
                                 </tspan>
                              </text>
                              <rect x="11057" y="2005" height="20" width="84" />
                           </g>
                        </g>
                     </g>
                  </g>
               </g>
               <g id="i1mk9vv6" class="barLine">
                  <path d="M11142 540 L11142 1260" stroke-width="27" />
               </g>
            </g>
            <g id="xuevd1b" class="measure">
               <g id="g7qqmx2" class="staff">
                  <path d="M11155 540 L13106 540" stroke-width="13" />
                  <path d="M11155 720 L13106 720" stroke-width="13" />
                  <path d="M11155 900 L13106 900" stroke-width="13" />
                  <path d="M11155 1080 L13106 1080" stroke-width="13" />
                  <path d="M11155 1260 L13106 1260" stroke-width="13" />
                  <g class="ledgerLines below">
                     <path d="M11284 1440 L11606 1440" stroke-width="22" />
                     <path d="M12347 1440 L12669 1440" stroke-width="22" />
                     <path d="M12347 1620 L12669 1620" stroke-width="22" />
                  </g>
                  <g id="h1gkl9bu" class="layer">
                     <g id="i1y3yzvu" class="note">
                        <g class="notehead">
                           <use xlink:href="#E0A3-i1uttrpn" transform="translate(11332, 1530) scale(0.72, 0.72)" />
                        </g>
                        <g id="ktjv6b" class="stem">
                           <path d="M11549 1502 L11549 900" stroke-width="18" />
                        </g>
                        <g id="j9nodwd" class="verse">
                           <title class="labelAttr">1</title>
                           <g id="kpuousr" class="syl">
                              <text x="11248" y="2100" font-size="0px">
                                 <tspan id="l1frnih3" class="text">
                                    <tspan font-size="378px">te</tspan>
                                 </tspan>
                              </text>
                              <rect x="11874" y="2005" height="20" width="84" />
                           </g>
                        </g>
                     </g>
                     <g id="m1j9q23g" class="note">
                        <g class="notehead">
                           <use xlink:href="#E0A4-i1uttrpn" transform="translate(12395, 1620) scale(0.72, 0.72)" />
                        </g>
                        <g id="l148piau" class="stem">
                           <path d="M12612 1592 L12612 900" stroke-width="18" />
                        </g>
                        <g id="n1xieubj" class="verse">
                           <title class="labelAttr">1</title>
                           <g id="o1gcykdn" class="syl">
                              <text x="12311" y="2100" font-size="0px">
                                 <tspan id="p137i11l" class="text">
                                    <tspan font-size="378px">mi</tspan>
                                 </tspan>
                              </text>
                           </g>
                        </g>
                     </g>
                  </g>
               </g>
               <g id="f1i7emqi" class="barLine">
                  <path d="M13093 540 L13093 1260" stroke-width="27" />
               </g>
            </g>
            <g id="q7trekc" class="measure">
               <g id="z2pz2vb" class="staff">
                  <path d="M13106 540 L15057 540" stroke-width="13" />
                  <path d="M13106 720 L15057 720" stroke-width="13" />
                  <path d="M13106 900 L15057 900" stroke-width="13" />
                  <path d="M13106 1080 L15057 1080" stroke-width="13" />
                  <path d="M13106 1260 L15057 1260" stroke-width="13" />
                  <g class="ledgerLines below">
                     <path d="M13235 1440 L13557 1440" stroke-width="22" />
                     <path d="M13933 1440 L14255 1440" stroke-width="22" />
                     <path d="M13235 1620 L13557 1620" stroke-width="22" />
                     <path d="M13933 1620 L14255 1620" stroke-width="22" />
                  </g>
                  <g id="aeiehkl" class="layer">
                     <g id="b19m0jew" class="note">
                        <g class="notehead">
                           <use xlink:href="#E0A4-i1uttrpn" transform="translate(13283, 1620) scale(0.72, 0.72)" />
                        </g>
                        <g id="mzkrpp5" class="stem">
                           <path d="M13500 1592 L13500 900" stroke-width="18" />
                        </g>
                        <g id="ckqvh9d" class="verse">
                           <title class="labelAttr">1</title>
                           <g id="d1q8w0jk" class="syl">
                              <text x="13199" y="2100" font-size="0px">
                                 <tspan id="e5c4cq3" class="text">
                                    <tspan font-size="378px">mo</tspan>
                                 </tspan>
                              </text>
                              <rect x="13748" y="2005" height="20" width="84" />
                           </g>
                        </g>
                     </g>
                     <g id="fehe96y" class="note">
                        <g class="notehead">
                           <use xlink:href="#E0A3-i1uttrpn" transform="translate(13981, 1710) scale(0.72, 0.72)" />
                        </g>
                        <g id="n6n7g64" class="stem">
                           <path d="M14198 1682 L14198 900" stroke-width="18" />
                        </g>
                        <g id="g1cjf6rj" class="accid" />
                        <g id="h7yp44" class="verse">
                           <title class="labelAttr">1</title>
                           <g id="ic6m8g7" class="syl">
                              <text x="13897" y="2100" font-size="0px">
                                 <tspan id="j4z25po" class="text">
                                    <tspan font-size="378px">rir!</tspan>
                                 </tspan>
                              </text>
                           </g>
                        </g>
                     </g>
                  </g>
               </g>
               <g id="y12g06pg" class="barLine">
                  <path d="M15044 540 L15044 1260" stroke-width="27" />
               </g>
            </g>
            <g id="kk8cz0y" class="measure">
               <g id="t1cwd4m8" class="staff">
                  <path d="M15057 540 L16515 540" stroke-width="13" />
                  <path d="M15057 720 L16515 720" stroke-width="13" />
                  <path d="M15057 900 L16515 900" stroke-width="13" />
                  <path d="M15057 1080 L16515 1080" stroke-width="13" />
                  <path d="M15057 1260 L16515 1260" stroke-width="13" />
                  <g id="u1x2gjmu" class="layer">
                     <g id="v129lfzr" class="mRest">
                        <use xlink:href="#E4E3-i1uttrpn" transform="translate(15664, 720) scale(0.72, 0.72)" />
                     </g>
                  </g>
               </g>
               <g id="sygw81" class="barLine">
                  <path d="M16502 540 L16502 1260" stroke-width="27" />
               </g>
            </g>
            <g id="w1xauk3l" class="measure">
               <g id="f15wdao4" class="staff">
                  <path d="M16515 540 L18803 540" stroke-width="13" />
                  <path d="M16515 720 L18803 720" stroke-width="13" />
                  <path d="M16515 900 L18803 900" stroke-width="13" />
                  <path d="M16515 1080 L18803 1080" stroke-width="13" />
                  <path d="M16515 1260 L18803 1260" stroke-width="13" />
                  <g id="g10hpg46" class="layer">
                     <g id="hv9gcs6" class="note">
                        <g class="notehead">
                           <use xlink:href="#E0A4-i1uttrpn" transform="translate(16692, 1260) scale(0.72, 0.72)" />
                        </g>
                        <g id="o1vq2kd8" class="stem">
                           <path d="M16909 1232 L16909 630" stroke-width="18" />
                        </g>
                        <g id="i16tgdcs" class="verse">
                           <title class="labelAttr">1</title>
                           <g id="jme94q5" class="syl">
                              <text x="16608" y="2100" font-size="0px">
                                 <tspan id="k19tntmi" class="text">
                                    <tspan font-size="378px">Lu</tspan>
                                 </tspan>
                              </text>
                              <rect x="17065" y="2005" height="20" width="84" />
                           </g>
                        </g>
                     </g>
                     <g id="lbrqblw" class="note">
                        <g class="notehead">
                           <use xlink:href="#E0A4-i1uttrpn" transform="translate(17390, 1260) scale(0.72, 0.72)" />
                        </g>
                        <g id="pt97223" class="stem">
                           <path d="M17607 1232 L17607 630" stroke-width="18" />
                        </g>
                        <g id="mtwxygb" class="verse">
                           <title class="labelAttr">1</title>
                           <g id="n1gcffnn" class="syl">
                              <text x="17186" y="2100" font-size="0px">
                                 <tspan id="ooqzent" class="text">
                                    <tspan font-size="378px">ci in</tspan>
                                 </tspan>
                              </text>
                              <rect x="17887" y="2005" height="20" width="84" />
                           </g>
                        </g>
                     </g>
                     <g id="p1nr8ql4" class="note">
                        <g class="notehead">
                           <use xlink:href="#E0A4-i1uttrpn" transform="translate(18092, 1260) scale(0.72, 0.72)" />
                        </g>
                        <g id="q4aw71p" class="stem">
                           <path d="M18309 1232 L18309 630" stroke-width="18" />
                        </g>
                        <g id="ql52gv7" class="verse">
                           <title class="labelAttr">1</title>
                           <g id="rpnxwqe" class="syl">
                              <text x="18008" y="2100" font-size="0px">
                                 <tspan id="siladnz" class="text">
                                    <tspan font-size="378px">gra</tspan>
                                 </tspan>
                              </text>
                              <rect x="18655" y="2005" height="20" width="84" />
                           </g>
                        </g>
                     </g>
                  </g>
               </g>
               <g id="evq3e3k" class="barLine">
                  <path d="M18790 540 L18790 1260" stroke-width="27" />
               </g>
            </g>
         </g>
         <g id="k6y3k84" class="system">
            <g id="tupuc0j" class="measure">
               <g id="o1563caq" class="mNum autogenerated">
                  <text y="2856" text-anchor="middle" font-size="0px">
                     <tspan id="p1vlihfd" class="text">
                        <tspan font-size="302px">9</tspan>
                     </tspan>
                  </text>
               </g>
               <g id="c6byw4j" class="staff">
                  <path d="M0 3082 L2629 3082" stroke-width="13" />
                  <path d="M0 3262 L2629 3262" stroke-width="13" />
                  <path d="M0 3442 L2629 3442" stroke-width="13" />
                  <path d="M0 3622 L2629 3622" stroke-width="13" />
                  <path d="M0 3802 L2629 3802" stroke-width="13" />
                  <g id="l1t27e9d" class="clef">
                     <use xlink:href="#E050-i1uttrpn" transform="translate(90, 3622) scale(0.72, 0.72)" />
                  </g>
                  <g id="mo1wqw5" class="keySig" />
                  <g id="dbp8cs1" class="layer">
                     <g id="e8akfji" class="note">
                        <g class="notehead">
                           <use xlink:href="#E0A3-i1uttrpn" transform="translate(825, 3532) scale(0.72, 0.72)" />
                        </g>
                        <g id="rqapdn0" class="stem">
                           <path d="M1042 3504 L1042 2902" stroke-width="18" />
                        </g>
                        <g id="fnfbwn6" class="verse">
                           <title class="labelAttr">1</title>
                           <g id="g14aikhb" class="syl">
                              <text x="741" y="4552" font-size="0px">
                                 <tspan id="h1cd259u" class="text">
                                    <tspan font-size="378px">te,</tspan>
                                 </tspan>
                              </text>
                           </g>
                        </g>
                     </g>
                     <g id="ifdm84f" class="note">
                        <g class="notehead">
                           <use xlink:href="#E0A4-i1uttrpn" transform="translate(1906, 3622) scale(0.72, 0.72)" />
                        </g>
                        <g id="s1wpbatf" class="stem">
                           <path d="M2123 3594 L2123 2992" stroke-width="18" />
                        </g>
                        <g id="jcn82pu" class="verse">
                           <title class="labelAttr">1</title>
                           <g id="kvk5lkc" class="syl">
                              <text x="1822" y="4552" font-size="0px">
                                 <tspan id="l10y8nfh" class="text">
                                    <tspan font-size="378px">e</tspan>
                                 </tspan>
                              </text>
                           </g>
                        </g>
                     </g>
                  </g>
               </g>
               <g id="b1kmh4sq" class="barLine">
                  <path d="M2616 3082 L2616 3802" stroke-width="27" />
               </g>
            </g>
            <g id="m1mrgowv" class="measure">
               <g id="v1aam8r4" class="staff">
                  <path d="M2629 3082 L4952 3082" stroke-width="13" />
                  <path d="M2629 3262 L4952 3262" stroke-width="13" />
                  <path d="M2629 3442 L4952 3442" stroke-width="13" />
                  <path d="M2629 3622 L4952 3622" stroke-width="13" />
                  <path d="M2629 3802 L4952 3802" stroke-width="13" />
                  <g id="woo1ay9" class="layer">
                     <g id="xckfc5i" class="note">
                        <g class="notehead">
                           <use xlink:href="#E0A4-i1uttrpn" transform="translate(2809, 3712) scale(0.72, 0.72)" />
                        </g>
                        <g id="tdzvrhk" class="stem">
                           <path d="M3026 3684 L3026 3082" stroke-width="18" />
                        </g>
                        <g id="y1ilop8v" class="verse">
                           <title class="labelAttr">1</title>
                           <g id="z2s7td6" class="syl">
                              <text x="2725" y="4552" font-size="0px">
                                 <tspan id="a17n2ipc" class="text">
                                    <tspan font-size="378px">più</tspan>
                                 </tspan>
                              </text>
                           </g>
                        </g>
                     </g>
                     <g id="b15i4p9f" class="note">
                        <g class="notehead">
                           <use xlink:href="#E0A4-i1uttrpn" transform="translate(3519, 3802) scale(0.72, 0.72)" />
                        </g>
                        <g id="u1okonue" class="stem">
                           <path d="M3736 3774 L3736 3172" stroke-width="18" />
                        </g>
                        <g id="c1tpkdwa" class="verse">
                           <title class="labelAttr">1</title>
                           <g id="d1ucg1t9" class="syl">
                              <text x="3435" y="4552" font-size="0px">
                                 <tspan id="e17azxd8" class="text">
                                    <tspan font-size="378px">del</tspan>
                                 </tspan>
                              </text>
                           </g>
                        </g>
                     </g>
                     <g id="f16y4lel" class="note">
                        <g class="notehead">
                           <use xlink:href="#E0A4-i1uttrpn" transform="translate(4229, 3892) scale(0.72, 0.72)" />
                        </g>
                        <g id="v1uax2sr" class="stem">
                           <path d="M4446 3864 L4446 3262" stroke-width="18" />
                        </g>
                        <g id="g1gn9er3" class="verse">
                           <title class="labelAttr">1</title>
                           <g id="h1n6ingw" class="syl">
                              <text x="4145" y="4552" font-size="0px">
                                 <tspan id="ixeu8bq" class="text">
                                    <tspan font-size="378px">ge</tspan>
                                 </tspan>
                              </text>
                              <rect x="4733" y="4457" height="20" width="84" />
                           </g>
                        </g>
                     </g>
                  </g>
               </g>
               <g id="ucau0vu" class="barLine">
                  <path d="M4939 3082 L4939 3802" stroke-width="27" />
               </g>
            </g>
            <g id="j1rjgvcn" class="measure">
               <g id="s9tj5bi" class="staff">
                  <path d="M4952 3082 L6936 3082" stroke-width="13" />
                  <path d="M4952 3262 L6936 3262" stroke-width="13" />
                  <path d="M4952 3442 L6936 3442" stroke-width="13" />
                  <path d="M4952 3622 L6936 3622" stroke-width="13" />
                  <path d="M4952 3802 L6936 3802" stroke-width="13" />
                  <g class="ledgerLines below">
                     <path d="M5084 3982 L5406 3982" stroke-width="22" />
                     <path d="M6165 3982 L6487 3982" stroke-width="22" />
                  </g>
                  <g id="t1ga2au1" class="layer">
                     <g id="u1ytns38" class="note">
                        <g class="notehead">
                           <use xlink:href="#E0A3-i1uttrpn" transform="translate(5132, 3982) scale(0.72, 0.72)" />
                        </g>
                        <g id="w1kcyfgl" class="stem">
                           <path d="M5349 3954 L5349 3352" stroke-width="18" />
                        </g>
                        <g id="v19g6ydb" class="verse">
                           <title class="labelAttr">1</title>
                           <g id="wul3tug" class="syl">
                              <text x="5048" y="4552" font-size="0px">
                                 <tspan id="xz0z2hm" class="text">
                                    <tspan font-size="378px">lo</tspan>
                                 </tspan>
                              </text>
                           </g>
                        </g>
                     </g>
                     <g id="y1k3j819" class="note">
                        <g class="notehead">
                           <use xlink:href="#E0A4-i1uttrpn" transform="translate(6213, 4072) scale(0.72, 0.72)" />
                        </g>
                        <g id="x1seg1u1" class="stem">
                           <path d="M6430 4044 L6430 3442" stroke-width="18" />
                        </g>
                        <g id="z15j3kmp" class="verse">
                           <title class="labelAttr">1</title>
                           <g id="a1bp9ubc" class="syl">
                              <text x="6129" y="4552" font-size="0px">
                                 <tspan id="b15auvkn" class="text">
                                    <tspan font-size="378px">non</tspan>
                                 </tspan>
                              </text>
                           </g>
                        </g>
                     </g>
                  </g>
               </g>
               <g id="rqooie8" class="barLine">
                  <path d="M6923 3082 L6923 3802" stroke-width="27" />
               </g>
            </g>
            <g id="c1c1ld9p" class="measure">
               <g id="l16v9u8o" class="staff">
                  <path d="M6936 3082 L9259 3082" stroke-width="13" />
                  <path d="M6936 3262 L9259 3262" stroke-width="13" />
                  <path d="M6936 3442 L9259 3442" stroke-width="13" />
                  <path d="M6936 3622 L9259 3622" stroke-width="13" />
                  <path d="M6936 3802 L9259 3802" stroke-width="13" />
                  <g class="ledgerLines below">
                     <path d="M7068 3982 L7390 3982" stroke-width="22" />
                     <path d="M7778 3982 L8100 3982" stroke-width="22" />
                     <path d="M8488 3982 L8810 3982" stroke-width="22" />
                     <path d="M7068 4162 L7390 4162" stroke-width="22" />
                  </g>
                  <g id="m195ydt5" class="layer">
                     <g id="n18e78s6" class="note">
                        <g class="notehead">
                           <use xlink:href="#E0A4-i1uttrpn" transform="translate(7116, 4162) scale(0.72, 0.72)" />
                        </g>
                        <g id="y1xv7m8b" class="stem">
                           <path d="M7333 4134 L7333 3442" stroke-width="18" />
                        </g>
                        <g id="o1u0es6p" class="verse">
                           <title class="labelAttr">1</title>
                           <g id="pegzlwa" class="syl">
                              <text x="7032" y="4552" font-size="0px">
                                 <tspan id="q1eik9q2" class="text">
                                    <tspan font-size="378px">vi</tspan>
                                 </tspan>
                              </text>
                           </g>
                        </g>
                     </g>
                     <g id="rk1dhu7" class="note">
                        <g class="notehead">
                           <use xlink:href="#E0A4-i1uttrpn" transform="translate(7826, 4072) scale(0.72, 0.72)" />
                        </g>
                        <g id="z1lak49v" class="stem">
                           <path d="M8043 4044 L8043 3442" stroke-width="18" />
                        </g>
                        <g id="s1oiz80f" class="verse">
                           <title class="labelAttr">1</title>
                           <g id="taekzrb" class="syl">
                              <text x="7742" y="4552" font-size="0px">
                                 <tspan id="u1aum10h" class="text">
                                    <tspan font-size="378px">bra</tspan>
                                 </tspan>
                              </text>
                              <rect x="8268" y="4457" height="20" width="84" />
                           </g>
                        </g>
                     </g>
                     <g id="v16gaxe5" class="note">
                        <g class="notehead">
                           <use xlink:href="#E0A4-i1uttrpn" transform="translate(8536, 3982) scale(0.72, 0.72)" />
                        </g>
                        <g id="a57eq9n" class="stem">
                           <path d="M8753 3954 L8753 3352" stroke-width="18" />
                        </g>
                        <g id="w1xh61po" class="verse">
                           <title class="labelAttr">1</title>
                           <g id="x1xfcw1a" class="syl">
                              <text x="8395" y="4552" font-size="0px">
                                 <tspan id="y1fywfgj" class="text">
                                    <tspan font-size="378px">te.</tspan>
                                 </tspan>
                              </text>
                           </g>
                        </g>
                     </g>
                  </g>
               </g>
               <g id="keywyds" class="barLine">
                  <path d="M9246 3082 L9246 3802" stroke-width="27" />
               </g>
            </g>
            <g id="z1gti11n" class="measure">
               <g id="itayj2r" class="staff">
                  <path d="M9259 3082 L10993 3082" stroke-width="13" />
                  <path d="M9259 3262 L10993 3262" stroke-width="13" />
                  <path d="M9259 3442 L10993 3442" stroke-width="13" />
                  <path d="M9259 3622 L10993 3622" stroke-width="13" />
                  <path d="M9259 3802 L10993 3802" stroke-width="13" />
                  <g class="ledgerLines below">
                     <path d="M9391 3982 L9713 3982" stroke-width="22" />
                     <path d="M9391 4162 L9713 4162" stroke-width="22" />
                  </g>
                  <g id="j1apf1up" class="layer">
                     <g id="kr8dzzf" class="note">
                        <g class="notehead">
                           <use xlink:href="#E0A3-i1uttrpn" transform="translate(9439, 4162) scale(0.72, 0.72)" />
                        </g>
                        <g id="cjp74k0" class="dots">
                           <ellipse cx="9755" cy="4072" rx="36" ry="36" />
                        </g>
                        <g id="b124e36s" class="stem">
                           <path d="M9656 4134 L9656 3442" stroke-width="18" />
                        </g>
                     </g>
                  </g>
               </g>
               <g id="hlredfg" class="barLine">
                  <path d="M10818 3082 L10818 3802" stroke-width="27" />
                  <path d="M10948 3082 L10948 3802" stroke-width="90" />
               </g>
            </g>
            <g id="uxoykhg" class="systemMilestoneEnd l198fazt" />
            <g id="v1ch394t" class="systemMilestoneEnd vleg4al" />
            <g class="syl id-rpnxwqe spanning">
               <rect x="561" y="4457" height="20" width="84" />
            </g>
         </g>
         <g id="w1l8grz2" class="pageMilestoneEnd t1jo4npk" />
         <g id="xq28ntk" class="pageMilestoneEnd sjnuuup" />
      </g>
   </svg>
</svg>
