<svg width="840px" height="1188px" version="1.1" xmlns="http://www.w3.org/2000/svg" xmlns:xlink="http://www.w3.org/1999/xlink" overflow="visible" id="ro36h4w">
   <desc>Engraved by Verovio 6.3.0-425dd7b</desc>
   <defs>
      <g id="E050-ro36h4w">
         <path transform="scale(1,-1)" d="M441 -245c-23 -4 -48 -6 -76 -6c-59 0 -102 7 -130 20c-88 42 -150 93 -187 154c-26 44 -43 103 -48 176c0 6 -1 13 -1 19c0 54 15 111 45 170c29 57 65 106 110 148s96 85 153 127c-3 16 -8 46 -13 92c-4 43 -5 73 -5 89c0 117 16 172 69 257c34 54 64 82 89 82 c21 0 43 -30 69 -92s39 -115 41 -159v-15c0 -109 -21 -162 -67 -241c-13 -20 -63 -90 -98 -118c-13 -9 -25 -19 -37 -29l31 -181c8 1 18 2 28 2c58 0 102 -12 133 -35c59 -43 92 -104 98 -184c1 -7 1 -15 1 -22c0 -123 -87 -209 -181 -248c8 -57 17 -110 25 -162 c5 -31 6 -58 6 -80c0 -30 -5 -53 -14 -70c-35 -64 -88 -99 -158 -103c-5 0 -11 -1 -16 -1c-37 0 -72 10 -108 27c-50 24 -77 59 -80 105v11c0 29 7 55 20 76c18 28 45 42 79 44h6c49 0 93 -42 97 -87v-9c0 -51 -34 -86 -105 -106c17 -24 51 -36 102 -36c62 0 116 43 140 85 c9 16 13 41 13 74c0 20 -1 42 -5 67c-8 53 -18 106 -26 159zM461 939c-95 0 -135 -175 -135 -286c0 -24 2 -48 5 -71c50 39 92 82 127 128c40 53 60 100 60 140v8c-4 53 -22 81 -55 81h-2zM406 119l54 -326c73 25 110 78 110 161c0 7 0 15 -1 23c-7 95 -57 142 -151 142h-12 zM382 117c-72 -2 -128 -47 -128 -120v-7c2 -46 43 -99 75 -115c-3 -2 -7 -5 -10 -10c-70 33 -116 88 -123 172v11c0 68 44 126 88 159c23 17 49 29 78 36l-29 170c-21 -13 -52 -37 -92 -73c-50 -44 -86 -84 -109 -119c-45 -69 -67 -130 -67 -182v-13c5 -68 35 -127 93 -176 s125 -73 203 -73c25 0 50 3 75 9c-19 111 -36 221 -54 331z" />
      </g>
      <g id="E262-ro36h4w">
         <path transform="scale(1,-1)" d="M136 186v169h17v-164l44 14v-91l-44 -14v-165l44 12v-91l-44 -13v-155h-17v150l-76 -22v-155h-17v149l-43 -13v90l43 14v167l-43 -14v92l43 13v169h17v-163zM60 73v-167l76 22v168z" />
      </g>
      <g id="E084-ro36h4w">
         <path transform="scale(1,-1)" d="M20 -78c84 97 114 180 134 329h170c-13 -32 -82 -132 -99 -151l-84 -97c-33 -36 -59 -63 -80 -81h162v102l127 123v-225h57v-39h-57v-34c0 -43 19 -65 57 -65v-34h-244v36c48 0 60 26 60 70v27h-203v39z" />
      </g>
      <g id="E0A4-ro36h4w">
         <path transform="scale(1,-1)" d="M0 -39c0 68 73 172 200 172c66 0 114 -37 114 -95c0 -84 -106 -171 -218 -171c-64 0 -96 30 -96 94z" />
      </g>
      <g id="E0A3-ro36h4w">
         <path transform="scale(1,-1)" d="M278 64c0 22 -17 39 -43 39c-12 0 -26 -3 -41 -10c-85 -43 -165 -94 -165 -156c5 -25 15 -32 49 -32c67 11 200 95 200 159zM0 -36c0 68 73 174 200 174c66 0 114 -39 114 -97c0 -84 -106 -173 -218 -173c-64 0 -96 32 -96 96z" />
      </g>
      <g id="E4E5-ro36h4w">
         <path transform="scale(1,-1)" d="M107 292c-13 24 -30 49 -52 71c-1 1 0 2 0 3l-2 2c3 3 4 4 6 4c12 0 26 -7 40 -20s44 -40 89 -81c26 -24 28 -29 46 -47c4 -4 8 -9 10 -14c6 -8 8 -16 8 -27c0 -19 -12 -40 -36 -61c-28 -23 -49 -38 -61 -73c-4 -11 -7 -27 -10 -50c13 -43 34 -83 59 -121 c31 -47 59 -79 101 -129c-8 0 -26 7 -54 20l-62 29l-21 6l-23 1c-25 0 -45 -10 -60 -30l-4 -14l-1 -12c0 -33 20 -56 39 -78c8 -9 17 -18 26 -26c17 -15 27 -24 28 -30l-3 -3c-11 5 -19 10 -25 15c-9 3 -37 21 -45 26c-24 14 -45 32 -63 51c-19 21 -37 44 -37 71 c0 63 27 95 80 95c41 0 86 -18 136 -52c-19 26 -37 48 -55 66c-23 23 -48 44 -73 65c-28 23 -47 40 -58 53s-17 26 -18 39c75 64 113 125 113 183c0 27 -7 48 -18 68z" />
      </g>
      <g id="E4E4-ro36h4w">
         <path transform="scale(1,-1)" d="M0 10v105c0 9 1 10 10 10h280c9 0 10 -1 10 -10v-105c0 -9 -1 -10 -10 -10h-280c-9 0 -10 1 -10 10z" />
      </g>
   </defs>
   <style type="text/css">#ro36h4w g.ending, #ro36h4w g.fing, #ro36h4w g.reh, #ro36h4w g.tempo {font-weight:bold;}#ro36h4w g.dir, #ro36h4w g.dynam, #ro36h4w g.mNum {font-style:italic;}#ro36h4w g.label {font-weight:normal;}#ro36h4w ellipse, #ro36h4w path, #ro36h4w polygon, #ro36h4w polyline, #ro36h4w rect {stroke:currentColor}#ro36h4w g.cursor {fill:dodgerblue; color:dodgerblue;}#ro36h4w g.cursor.chord {fill:limegreen; color:limegreen;}</style>
   <svg class="definition-scale" color="black" font-family="Times, serif" viewBox="0 0 21000 29700">
      <g class="page-margin" transform="translate(1100, 1200)">
         <g id="b1q4qo4z" class="mdiv pageMilestone" />
         <g id="c1uheakd" class="score pageMilestone" />
         <g id="rseprqg" class="system">
            <g id="k11i4ofp" class="label">
               <text x="1069" y="1020" text-anchor="end" font-size="0px">
                  <tspan id="lbpcocc" class="text">
                     <tspan font-size="378px">Voice</tspan>
                  </tspan>
               </text>
            </g>
            <g id="eikv6b4" class="section systemMilestone" />
            <g id="m17rfl7y" class="section systemMilestone" />
            <g id="t1gsg7g8" class="measure">
               <g id="cjxa8xg" class="staff">
                  <path d="M1249 570 L6133 570" stroke-width="13" />
                  <path d="M1249 750 L6133 750" stroke-width="13" />
                  <path d="M1249 930 L6133 930" stroke-width="13" />
                  <path d="M1249 1110 L6133 1110" stroke-width="13" />
                  <path d="M1249 1290 L6133 1290" stroke-width="13" />
                  <g id="o3zdup4" class="clef">
                     <use xlink:href="#E050-ro36h4w" transform="translate(1339, 1110) scale(0.72, 0.72)" />
                  </g>
                  <g id="p12smoti" class="keySig">
                     <g id="q6kp8ep" class="keyAccid">
                        <use xlink:href="#E262-ro36h4w" transform="translate(1984, 570) scale(0.72, 0.72)" />
                     </g>
                  </g>
                  <g id="r1j7dm2g" class="meterSig">
                     <use xlink:href="#E084-ro36h4w" transform="translate(2291, 750) scale(0.72, 0.72)" />
                     <use xlink:href="#E084-ro36h4w" transform="translate(2291, 1110) scale(0.72, 0.72)" />
                  </g>
                  <g id="gzn16jw" class="layer">
                     <g id="h1dq6dpx" class="note">
                        <g class="notehead">
                           <use xlink:href="#E0A4-ro36h4w" transform="translate(2853, 930) scale(0.72, 0.72)" />
                        </g>
                        <g id="rldbrax" class="stem">
                           <path d="M2862 958 L2862 1530" stroke-width="18" />
                        </g>
                        <g id="iuqkw" class="verse">
                           <title class="labelAttr">1</title>
                           <g id="j1yxdmuk" class="syl">
                              <text x="2769" y="1834" font-size="0px">
                                 <tspan id="k1lcdxu9" class="text">
                                    <tspan font-size="378px">Seb</tspan>
                                 </tspan>
                              </text>
                              <rect x="3419" y="1739" height="20" width="84" />
                           </g>
                        </g>
                     </g>
                     <g id="lsg7olu" class="note">
                        <g class="notehead">
                           <use xlink:href="#E0A4-ro36h4w" transform="translate(3669, 930) scale(0.72, 0.72)" />
                        </g>
                        <g id="s1gsgjp4" class="stem">
                           <path d="M3678 958 L3678 1530" stroke-width="18" />
                        </g>
                        <g id="m6mu0gt" class="verse">
                           <title class="labelAttr">1</title>
                           <g id="nh3sm7s" class="syl">
                              <text x="3585" y="1834" font-size="0px">
                                 <tspan id="od0h433" class="text">
                                    <tspan font-size="378px">ben,</tspan>
                                 </tspan>
                              </text>
                           </g>
                        </g>
                     </g>
                     <g id="p1rvwr7" class="note">
                        <g class="notehead">
                           <use xlink:href="#E0A4-ro36h4w" transform="translate(4486, 1020) scale(0.72, 0.72)" />
                        </g>
                        <g id="t1cv10cl" class="stem">
                           <path d="M4703 992 L4703 390" stroke-width="18" />
                        </g>
                        <g id="q1dj2w0e" class="verse">
                           <title class="labelAttr">1</title>
                           <g id="r1ryo6kv" class="syl">
                              <text x="4402" y="1834" font-size="0px">
                                 <tspan id="s1e1or7a" class="text">
                                    <tspan font-size="378px">cru</tspan>
                                 </tspan>
                              </text>
                              <rect x="5010" y="1739" height="20" width="84" />
                           </g>
                        </g>
                     </g>
                     <g id="t19l1pyu" class="note">
                        <g class="notehead">
                           <use xlink:href="#E0A4-ro36h4w" transform="translate(5303, 1110) scale(0.72, 0.72)" />
                        </g>
                        <g id="u11qfaph" class="stem">
                           <path d="M5520 1082 L5520 480" stroke-width="18" />
                        </g>
                        <g id="u1vtndqz" class="verse">
                           <title class="labelAttr">1</title>
                           <g id="vx6g527" class="syl">
                              <text x="5219" y="1834" font-size="0px">
                                 <tspan id="w1fnm9b" class="text">
                                    <tspan font-size="378px">de</tspan>
                                 </tspan>
                              </text>
                              <rect x="5860" y="1739" height="20" width="84" />
                           </g>
                        </g>
                     </g>
                  </g>
               </g>
               <g id="d1ds5ccc" class="dir">
                  <text x="2853" y="258" font-size="0px">
                     <tspan id="e1xfwkp8" class="text">
                        <tspan font-size="378px">Allegretto grazioso</tspan>
                     </tspan>
                  </text>
               </g>
               <g id="f1vrlc7p" class="tempo" xml:lang="it">
                  <text x="2291" y="525" font-size="0px" />
               </g>
               <g id="b1qkzaoa" class="barLine">
                  <path d="M6120 570 L6120 1290" stroke-width="27" />
               </g>
            </g>
            <g id="xwab0b8" class="measure">
               <g id="g15kw4d1" class="staff">
                  <path d="M6133 570 L9203 570" stroke-width="13" />
                  <path d="M6133 750 L9203 750" stroke-width="13" />
                  <path d="M6133 930 L9203 930" stroke-width="13" />
                  <path d="M6133 1110 L9203 1110" stroke-width="13" />
                  <path d="M6133 1290 L9203 1290" stroke-width="13" />
                  <g id="hhcq6g8" class="layer">
                     <g id="iguuwtq" class="note">
                        <g class="notehead">
                           <use xlink:href="#E0A3-ro36h4w" transform="translate(6313, 1200) scale(0.72, 0.72)" />
                        </g>
                        <g id="vg1w2ik" class="stem">
                           <path d="M6530 1172 L6530 570" stroke-width="18" />
                        </g>
                        <g id="j1pgi9aa" class="accid" />
                        <g id="k16rd9ng" class="verse">
                           <title class="labelAttr">1</title>
                           <g id="l1uy725z" class="syl">
                              <text x="6229" y="1834" font-size="0px">
                                 <tspan id="m17oiox3" class="text">
                                    <tspan font-size="378px">le,</tspan>
                                 </tspan>
                              </text>
                           </g>
                        </g>
                     </g>
                     <g id="n1vn0d40" class="note">
                        <g class="notehead">
                           <use xlink:href="#E0A4-ro36h4w" transform="translate(7556, 1290) scale(0.72, 0.72)" />
                        </g>
                        <g id="w1gz4nnt" class="stem">
                           <path d="M7773 1262 L7773 660" stroke-width="18" />
                        </g>
                        <g id="ou2dgjp" class="verse">
                           <title class="labelAttr">1</title>
                           <g id="ph85ram" class="syl">
                              <text x="7472" y="1834" font-size="0px">
                                 <tspan id="qvdawqo" class="text">
                                    <tspan font-size="378px">mi</tspan>
                                 </tspan>
                              </text>
                           </g>
                        </g>
                     </g>
                     <g id="r1w5uvqm" class="rest">
                        <use xlink:href="#E4E5-ro36h4w" transform="translate(8373, 930) scale(0.72, 0.72)" />
                     </g>
                  </g>
               </g>
               <g id="f16nbb85" class="barLine">
                  <path d="M9190 570 L9190 1290" stroke-width="27" />
               </g>
            </g>
            <g id="snw5w86" class="measure">
               <g id="bwzn49m" class="staff">
                  <path d="M9203 570 L12663 570" stroke-width="13" />
                  <path d="M9203 750 L12663 750" stroke-width="13" />
                  <path d="M9203 930 L12663 930" stroke-width="13" />
                  <path d="M9203 1110 L12663 1110" stroke-width="13" />
                  <path d="M9203 1290 L12663 1290" stroke-width="13" />
                  <g id="cg53hrw" class="layer">
                     <g id="dv9vsy3" class="note">
                        <g class="notehead">
                           <use xlink:href="#E0A4-ro36h4w" transform="translate(9383, 1200) scale(0.72, 0.72)" />
                        </g>
                        <g id="x1tss8mk" class="stem">
                           <path d="M9600 1172 L9600 570" stroke-width="18" />
                        </g>
                        <g id="e1599776" class="accid" />
                        <g id="f10drrtu" class="verse">
                           <title class="labelAttr">1</title>
                           <g id="gwyv1jp" class="syl">
                              <text x="9299" y="1834" font-size="0px">
                                 <tspan id="hdegqi8" class="text">
                                    <tspan font-size="378px">fai</tspan>
                                 </tspan>
                              </text>
                           </g>
                        </g>
                     </g>
                     <g id="i119jsw4" class="note">
                        <g class="notehead">
                           <use xlink:href="#E0A4-ro36h4w" transform="translate(10199, 1110) scale(0.72, 0.72)" />
                        </g>
                        <g id="yjzet6k" class="stem">
                           <path d="M10416 1082 L10416 480" stroke-width="18" />
                        </g>
                        <g id="j1ei8eh7" class="verse">
                           <title class="labelAttr">1</title>
                           <g id="k1no43ry" class="syl">
                              <text x="10115" y="1834" font-size="0px">
                                 <tspan id="lwa03dd" class="text">
                                    <tspan font-size="378px">lan</tspan>
                                 </tspan>
                              </text>
                              <rect x="10713" y="1739" height="20" width="84" />
                           </g>
                        </g>
                     </g>
                     <g id="m1vd6ea0" class="note">
                        <g class="notehead">
                           <use xlink:href="#E0A4-ro36h4w" transform="translate(11016, 1020) scale(0.72, 0.72)" />
                        </g>
                        <g id="z3nc540" class="stem">
                           <path d="M11233 992 L11233 390" stroke-width="18" />
                        </g>
                        <g id="nqk5ati" class="verse">
                           <title class="labelAttr">1</title>
                           <g id="o197hk4d" class="syl">
                              <text x="10932" y="1834" font-size="0px">
                                 <tspan id="pafbvfx" class="text">
                                    <tspan font-size="378px">guir,</tspan>
                                 </tspan>
                              </text>
                           </g>
                        </g>
                     </g>
                     <g id="q1ileude" class="note">
                        <g class="notehead">
                           <use xlink:href="#E0A4-ro36h4w" transform="translate(11833, 930) scale(0.72, 0.72)" />
                        </g>
                        <g id="awr07k1" class="stem">
                           <path d="M11842 958 L11842 1530" stroke-width="18" />
                        </g>
                     </g>
                  </g>
               </g>
               <g id="amqrdt1" class="barLine">
                  <path d="M12650 570 L12650 1290" stroke-width="27" />
               </g>
            </g>
            <g id="ramp9m9" class="measure">
               <g id="a4lxdb1" class="staff">
                  <path d="M12663 570 L15343 570" stroke-width="13" />
                  <path d="M12663 750 L15343 750" stroke-width="13" />
                  <path d="M12663 930 L15343 930" stroke-width="13" />
                  <path d="M12663 1110 L15343 1110" stroke-width="13" />
                  <path d="M12663 1290 L15343 1290" stroke-width="13" />
                  <g id="b6sewgb" class="layer">
                     <g id="cxpxmer" class="note">
                        <g class="notehead">
                           <use xlink:href="#E0A3-ro36h4w" transform="translate(12843, 1020) scale(0.72, 0.72)" />
                        </g>
                        <g id="b5kp4z2" class="stem">
                           <path d="M13060 992 L13060 390" stroke-width="18" />
                        </g>
                     </g>
                     <g id="d205ojc" class="rest">
                        <use xlink:href="#E4E4-ro36h4w" transform="translate(14086, 930) scale(0.72, 0.72)" />
                        <g class="ledgerLines" />
                     </g>
                  </g>
               </g>
               <g id="z1bcbb95" class="barLine">
                  <path d="M15330 570 L15330 1290" stroke-width="27" />
               </g>
            </g>
            <g id="e18vufj9" class="measure">
               <g id="n1i0ch0z" class="staff">
                  <path d="M15343 570 L18803 570" stroke-width="13" />
                  <path d="M15343 750 L18803 750" stroke-width="13" />
                  <path d="M15343 930 L18803 930" stroke-width="13" />
                  <path d="M15343 1110 L18803 1110" stroke-width="13" />
                  <path d="M15343 1290 L18803 1290" stroke-width="13" />
                  <g id="ob623zi" class="layer">
                     <g id="pmti7jh" class="note">
                        <g class="notehead">
                           <use xlink:href="#E0A4-ro36h4w" transform="translate(15523, 930) scale(0.72, 0.72)" />
                        </g>
                        <g id="c1gw9v96" class="stem">
                           <path d="M15532 958 L15532 1530" stroke-width="18" />
                        </g>
                        <g id="q1wla0ag" class="verse">
                           <title class="labelAttr">1</title>
                           <g id="r1hryd3g" class="syl">
                              <text x="15439" y="1834" font-size="0px">
                                 <tspan id="sfbwphv" class="text">
                                    <tspan font-size="378px">sem</tspan>
                                 </tspan>
                              </text>
                              <rect x="16110" y="1739" height="20" width="84" />
                           </g>
                        </g>
                     </g>
                     <g id="t1twivdy" class="note">
                        <g class="notehead">
                           <use xlink:href="#E0A4-ro36h4w" transform="translate(16339, 840) scale(0.72, 0.72)" />
                        </g>
                        <g id="d1s1qdaq" class="stem">
                           <path d="M16348 868 L16348 1470" stroke-width="18" />
                        </g>
                        <g id="u1gq2zqp" class="verse">
                           <title class="labelAttr">1</title>
                           <g id="vcwiwl8" class="syl">
                              <text x="16255" y="1834" font-size="0px">
                                 <tspan id="w1x85qve" class="text">
                                    <tspan font-size="378px">pre</tspan>
                                 </tspan>
                              </text>
                           </g>
                        </g>
                     </g>
                     <g id="xd40x59" class="note">
                        <g class="notehead">
                           <use xlink:href="#E0A4-ro36h4w" transform="translate(17156, 930) scale(0.72, 0.72)" />
                        </g>
                        <g id="eehahxn" class="stem">
                           <path d="M17165 958 L17165 1530" stroke-width="18" />
                        </g>
                        <g id="y10jq923" class="verse">
                           <title class="labelAttr">1</title>
                           <g id="zlh011e" class="syl">
                              <text x="17072" y="1834" font-size="0px">
                                 <tspan id="ahogh61" class="text">
                                    <tspan font-size="378px">fe</tspan>
                                 </tspan>
                              </text>
                              <rect x="17585" y="1739" height="20" width="84" />
                           </g>
                        </g>
                     </g>
                     <g id="b1xexez8" class="note">
                        <g class="notehead">
                           <use xlink:href="#E0A4-ro36h4w" transform="translate(17973, 1020) scale(0.72, 0.72)" />
                        </g>
                        <g id="f1m4o3r6" class="stem">
                           <path d="M18190 992 L18190 390" stroke-width="18" />
                        </g>
                        <g id="c11k9ty6" class="verse">
                           <title class="labelAttr">1</title>
                           <g id="d10o2jol" class="syl">
                              <text x="17889" y="1834" font-size="0px">
                                 <tspan id="e1eeqre5" class="text">
                                    <tspan font-size="378px">de</tspan>
                                 </tspan>
                              </text>
                              <rect x="18532" y="1739" height="20" width="84" />
                           </g>
                        </g>
                     </g>
                  </g>
               </g>
               <g id="m1n24zp7" class="barLine">
                  <path d="M18790 570 L18790 1290" stroke-width="27" />
               </g>
            </g>
         </g>
         <g id="u5fm5zg" class="system">
            <g id="f1j2zge" class="measure">
               <g id="j14mfvkg" class="mNum autogenerated">
                  <text y="2590" text-anchor="middle" font-size="0px">
                     <tspan id="kck98uh" class="text">
                        <tspan font-size="302px">6</tspan>
                     </tspan>
                  </text>
               </g>
               <g id="opnsxod" class="staff">
                  <path d="M0 2816 L4051 2816" stroke-width="13" />
                  <path d="M0 2996 L4051 2996" stroke-width="13" />
                  <path d="M0 3176 L4051 3176" stroke-width="13" />
                  <path d="M0 3356 L4051 3356" stroke-width="13" />
                  <path d="M0 3536 L4051 3536" stroke-width="13" />
                  <g id="aeavrxy" class="clef">
                     <use xlink:href="#E050-ro36h4w" transform="translate(90, 3356) scale(0.72, 0.72)" />
                  </g>
                  <g id="b1j6tmba" class="keySig">
                     <g id="cakx5ra" class="keyAccid">
                        <use xlink:href="#E262-ro36h4w" transform="translate(735, 2816) scale(0.72, 0.72)" />
                     </g>
                  </g>
                  <g id="p1o96bfi" class="layer">
                     <g id="q1pquhdt" class="note">
                        <g class="notehead">
                           <use xlink:href="#E0A3-ro36h4w" transform="translate(1146, 3356) scale(0.72, 0.72)" />
                        </g>
                        <g id="grhdtvc" class="stem">
                           <path d="M1363 3328 L1363 2726" stroke-width="18" />
                        </g>
                        <g id="rnj24z4" class="verse">
                           <title class="labelAttr">1</title>
                           <g id="sozm279" class="syl">
                              <text x="1062" y="4011" font-size="0px">
                                 <tspan id="twncqyz" class="text">
                                    <tspan font-size="378px">le</tspan>
                                 </tspan>
                              </text>
                           </g>
                        </g>
                     </g>
                     <g id="u1k52k0v" class="note">
                        <g class="notehead">
                           <use xlink:href="#E0A4-ro36h4w" transform="translate(2396, 3446) scale(0.72, 0.72)" />
                        </g>
                        <g id="hjpkfmv" class="stem">
                           <path d="M2613 3418 L2613 2816" stroke-width="18" />
                        </g>
                        <g id="vfdjtpp" class="accid" />
                        <g id="w1g3px3k" class="verse">
                           <title class="labelAttr">1</title>
                           <g id="x19dp0lp" class="syl">
                              <text x="2312" y="4011" font-size="0px">
                                 <tspan id="ysl3rwh" class="text">
                                    <tspan font-size="378px">ti</tspan>
                                 </tspan>
                              </text>
                           </g>
                        </g>
                     </g>
                     <g id="z1eprz0m" class="rest">
                        <use xlink:href="#E4E5-ro36h4w" transform="translate(3217, 3176) scale(0.72, 0.72)" />
                     </g>
                  </g>
               </g>
               <g id="n1ulo40f" class="barLine">
                  <path d="M4038 2816 L4038 3536" stroke-width="27" />
               </g>
            </g>
            <g id="a9luh9j" class="measure">
               <g id="j8f28m1" class="staff">
                  <path d="M4051 2816 L7528 2816" stroke-width="13" />
                  <path d="M4051 2996 L7528 2996" stroke-width="13" />
                  <path d="M4051 3176 L7528 3176" stroke-width="13" />
                  <path d="M4051 3356 L7528 3356" stroke-width="13" />
                  <path d="M4051 3536 L7528 3536" stroke-width="13" />
                  <g id="k1pwatgo" class="layer">
                     <g id="lqekdxk" class="note">
                        <g class="notehead">
                           <use xlink:href="#E0A4-ro36h4w" transform="translate(4231, 3356) scale(0.72, 0.72)" />
                        </g>
                        <g id="i19pmxz" class="stem">
                           <path d="M4448 3328 L4448 2726" stroke-width="18" />
                        </g>
                        <g id="mpufvvk" class="verse">
                           <title class="labelAttr">1</title>
                           <g id="ntp80th" class="syl">
                              <text x="4147" y="4011" font-size="0px">
                                 <tspan id="o1vltxs9" class="text">
                                    <tspan font-size="378px">vo</tspan>
                                 </tspan>
                              </text>
                              <rect x="4638" y="3916" height="20" width="84" />
                           </g>
                        </g>
                     </g>
                     <g id="p1331x8t" class="note">
                        <g class="notehead">
                           <use xlink:href="#E0A4-ro36h4w" transform="translate(5052, 3266) scale(0.72, 0.72)" />
                        </g>
                        <g id="j15uxl70" class="stem">
                           <path d="M5269 3238 L5269 2636" stroke-width="18" />
                        </g>
                        <g id="q1umcu7x" class="verse">
                           <title class="labelAttr">1</title>
                           <g id="ruxm8oz" class="syl">
                              <text x="4836" y="4011" font-size="0px">
                                 <tspan id="s1yzk8hn" class="text">
                                    <tspan font-size="378px">glio a</tspan>
                                 </tspan>
                              </text>
                           </g>
                        </g>
                     </g>
                     <g id="ttev1kb" class="note">
                        <g class="notehead">
                           <use xlink:href="#E0A4-ro36h4w" transform="translate(5873, 3356) scale(0.72, 0.72)" />
                        </g>
                        <g id="koqu9ni" class="stem">
                           <path d="M6090 3328 L6090 2726" stroke-width="18" />
                        </g>
                        <g id="ufkseu1" class="verse">
                           <title class="labelAttr">1</title>
                           <g id="v9wwvw0" class="syl">
                              <text x="5789" y="4011" font-size="0px">
                                 <tspan id="wrmjxjh" class="text">
                                    <tspan font-size="378px">mar.</tspan>
                                 </tspan>
                              </text>
                              <rect x="7161" y="3916" height="20" width="84" />
                           </g>
                        </g>
                     </g>
                     <g id="x1nn38v1" class="note">
                        <g class="notehead">
                           <use xlink:href="#E0A4-ro36h4w" transform="translate(6694, 3446) scale(0.72, 0.72)" />
                        </g>
                        <g id="l30awhf" class="stem">
                           <path d="M6911 3418 L6911 2816" stroke-width="18" />
                        </g>
                        <g id="y1eyx3ln" class="accid" />
                     </g>
                  </g>
               </g>
               <g id="ilano5f" class="barLine">
                  <path d="M7515 2816 L7515 3536" stroke-width="27" />
               </g>
            </g>
            <g id="zyq2s4f" class="measure">
               <g id="i6emnp7" class="staff">
                  <path d="M7528 2816 L10299 2816" stroke-width="13" />
                  <path d="M7528 2996 L10299 2996" stroke-width="13" />
                  <path d="M7528 3176 L10299 3176" stroke-width="13" />
                  <path d="M7528 3356 L10299 3356" stroke-width="13" />
                  <path d="M7528 3536 L10299 3536" stroke-width="13" />
                  <g id="j14fv4zo" class="layer">
                     <g id="kevqoog" class="note">
                        <g class="notehead">
                           <use xlink:href="#E0A3-ro36h4w" transform="translate(7708, 3536) scale(0.72, 0.72)" />
                        </g>
                        <g id="n1hn1j9t" class="dots">
                           <ellipse cx="8024" cy="3446" rx="36" ry="36" />
                        </g>
                        <g id="m1ozw4c5" class="stem">
                           <path d="M7925 3508 L7925 2906" stroke-width="18" />
                        </g>
                     </g>
                     <g id="l1cqdrcb" class="rest">
                        <use xlink:href="#E4E5-ro36h4w" transform="translate(9303, 3176) scale(0.72, 0.72)" />
                     </g>
                  </g>
               </g>
               <g id="h1cafe5o" class="barLine">
                  <path d="M10124 2816 L10124 3536" stroke-width="27" />
                  <path d="M10254 2816 L10254 3536" stroke-width="90" />
               </g>
            </g>
            <g id="vfht33p" class="systemMilestoneEnd m17rfl7y" />
            <g id="w12l85m6" class="systemMilestoneEnd eikv6b4" />
            <g class="syl id-d10o2jol spanning">
               <rect x="882" y="3916" height="20" width="84" />
            </g>
         </g>
         <g id="xdw9yud" class="pageMilestoneEnd c1uheakd" />
         <g id="y183fdlv" class="pageMilestoneEnd b1q4qo4z" />
      </g>
   </svg>
</svg>
