<svg width="840px" height="1188px" version="1.1" xmlns="http://www.w3.org/2000/svg" xmlns:xlink="http://www.w3.org/1999/xlink" overflow="visible" id="a1ydkzj">
   <desc>Engraved by Verovio 6.3.0-425dd7b</desc>
   <defs>
      <g id="E050-a1ydkzj">
         <path transform="scale(1,-1)" d="M441 -245c-23 -4 -48 -6 -76 -6c-59 0 -102 7 -130 20c-88 42 -150 93 -187 154c-26 44 -43 103 -48 176c0 6 -1 13 -1 19c0 54 15 111 45 170c29 57 65 106 110 148s96 85 153 127c-3 16 -8 46 -13 92c-4 43 -5 73 -5 89c0 117 16 172 69 257c34 54 64 82 89 82 c21 0 43 -30 69 -92s39 -115 41 -159v-15c0 -109 -21 -162 -67 -241c-13 -20 -63 -90 -98 -118c-13 -9 -25 -19 -37 -29l31 -181c8 1 18 2 28 2c58 0 102 -12 133 -35c59 -43 92 -104 98 -184c1 -7 1 -15 1 -22c0 -123 -87 -209 -181 -248c8 -57 17 -110 25 -162 c5 -31 6 -58 6 -80c0 -30 -5 -53 -14 -70c-35 -64 -88 -99 -158 -103c-5 0 -11 -1 -16 -1c-37 0 -72 10 -108 27c-50 24 -77 59 -80 105v11c0 29 7 55 20 76c18 28 45 42 79 44h6c49 0 93 -42 97 -87v-9c0 -51 -34 -86 -105 -106c17 -24 51 -36 102 -36c62 0 116 43 140 85 c9 16 13 41 13 74c0 20 -1 42 -5 67c-8 53 -18 106 -26 159zM461 939c-95 0 -135 -175 -135 -286c0 -24 2 -48 5 -71c50 39 92 82 127 128c40 53 60 100 60 140v8c-4 53 -22 81 -55 81h-2zM406 119l54 -326c73 25 110 78 110 161c0 7 0 15 -1 23c-7 95 -57 142 -151 142h-12 zM382 117c-72 -2 -128 -47 -128 -120v-7c2 -46 43 -99 75 -115c-3 -2 -7 -5 -10 -10c-70 33 -116 88 -123 172v11c0 68 44 126 88 159c23 17 49 29 78 36l-29 170c-21 -13 -52 -37 -92 -73c-50 -44 -86 -84 -109 -119c-45 -69 -67 -130 -67 -182v-13c5 -68 35 -127 93 -176 s125 -73 203 -73c25 0 50 3 75 9c-19 111 -36 221 -54 331z" />
      </g>
      <g id="E260-a1ydkzj">
         <path transform="scale(1,-1)" d="M20 110c32 16 54 27 93 27c26 0 35 -3 54 -13c13 -7 24 -20 27 -38l4 -25c0 -28 -16 -57 -45 -89c-23 -25 -39 -44 -65 -68l-88 -79v644h20v-359zM90 106c-32 0 -48 -10 -70 -29v-194c31 31 54 59 71 84c21 32 32 59 32 84c0 9 1 16 1 20c0 14 -3 21 -11 30l-8 3z" />
      </g>
      <g id="E084-a1ydkzj">
         <path transform="scale(1,-1)" d="M20 -78c84 97 114 180 134 329h170c-13 -32 -82 -132 -99 -151l-84 -97c-33 -36 -59 -63 -80 -81h162v102l127 123v-225h57v-39h-57v-34c0 -43 19 -65 57 -65v-34h-244v36c48 0 60 26 60 70v27h-203v39z" />
      </g>
      <g id="E0A4-a1ydkzj">
         <path transform="scale(1,-1)" d="M0 -39c0 68 73 172 200 172c66 0 114 -37 114 -95c0 -84 -106 -171 -218 -171c-64 0 -96 30 -96 94z" />
      </g>
      <g id="E0A3-a1ydkzj">
         <path transform="scale(1,-1)" d="M278 64c0 22 -17 39 -43 39c-12 0 -26 -3 -41 -10c-85 -43 -165 -94 -165 -156c5 -25 15 -32 49 -32c67 11 200 95 200 159zM0 -36c0 68 73 174 200 174c66 0 114 -39 114 -97c0 -84 -106 -173 -218 -173c-64 0 -96 32 -96 96z" />
      </g>
      <g id="E4E5-a1ydkzj">
         <path transform="scale(1,-1)" d="M107 292c-13 24 -30 49 -52 71c-1 1 0 2 0 3l-2 2c3 3 4 4 6 4c12 0 26 -7 40 -20s44 -40 89 -81c26 -24 28 -29 46 -47c4 -4 8 -9 10 -14c6 -8 8 -16 8 -27c0 -19 -12 -40 -36 -61c-28 -23 -49 -38 -61 -73c-4 -11 -7 -27 -10 -50c13 -43 34 -83 59 -121 c31 -47 59 -79 101 -129c-8 0 -26 7 -54 20l-62 29l-21 6l-23 1c-25 0 -45 -10 -60 -30l-4 -14l-1 -12c0 -33 20 -56 39 -78c8 -9 17 -18 26 -26c17 -15 27 -24 28 -30l-3 -3c-11 5 -19 10 -25 15c-9 3 -37 21 -45 26c-24 14 -45 32 -63 51c-19 21 -37 44 -37 71 c0 63 27 95 80 95c41 0 86 -18 136 -52c-19 26 -37 48 -55 66c-23 23 -48 44 -73 65c-28 23 -47 40 -58 53s-17 26 -18 39c75 64 113 125 113 183c0 27 -7 48 -18 68z" />
      </g>
      <g id="E0A2-a1ydkzj">
         <path transform="scale(1,-1)" d="M198 133c102 0 207 -45 207 -133c0 -92 -118 -133 -227 -133c-101 0 -178 46 -178 133c0 88 93 133 198 133zM293 -21c0 14 -3 29 -8 44c-7 20 -18 38 -33 54c-20 21 -43 31 -68 31l-20 -2c-15 -5 -27 -14 -36 -28c-4 -9 -6 -17 -8 -24s-3 -16 -3 -27c0 -15 3 -34 9 -57 s18 -41 34 -55c15 -15 36 -23 62 -23c4 0 10 1 18 2c19 5 32 15 40 30s13 34 13 55z" />
      </g>
   </defs>
   <style type="text/css">#a1ydkzj g.ending, #a1ydkzj g.fing, #a1ydkzj g.reh, #a1ydkzj g.tempo {font-weight:bold;}#a1ydkzj g.dir, #a1ydkzj g.dynam, #a1ydkzj g.mNum {font-style:italic;}#a1ydkzj g.label {font-weight:normal;}#a1ydkzj ellipse, #a1ydkzj path, #a1ydkzj polygon, #a1ydkzj polyline, #a1ydkzj rect {stroke:currentColor}#a1ydkzj g.cursor {fill:dodgerblue; color:dodgerblue;}#a1ydkzj g.cursor.chord {fill:limegreen; color:limegreen;}</style>
   <svg class="definition-scale" color="black" font-family="Times, serif" viewBox="0 0 21000 29700">
      <g class="page-margin" transform="translate(1100, 1200)">
         <g id="k1qt375c" class="mdiv pageMilestone" />
         <g id="l1yvi97v" class="score pageMilestone" />
         <g id="n305jyz" class="system">
            <g id="e10o0lil" class="label">
               <text x="1069" y="1020" text-anchor="end" font-size="0px">
                  <tspan id="fkjc5e0" class="text">
                     <tspan font-size="378px">Voice</tspan>
                  </tspan>
               </text>
            </g>
            <g id="n244yj3" class="section systemMilestone" />
            <g id="jnvym2n" class="section systemMilestone" />
            <g id="c1pd9bjt" class="measure">
               <g id="l1kagcqy" class="staff">
                  <path d="M1249 570 L6134 570" stroke-width="13" />
                  <path d="M1249 750 L6134 750" stroke-width="13" />
                  <path d="M1249 930 L6134 930" stroke-width="13" />
                  <path d="M1249 1110 L6134 1110" stroke-width="13" />
                  <path d="M1249 1290 L6134 1290" stroke-width="13" />
                  <g id="i17ncnt4" class="clef">
                     <use xlink:href="#E050-a1ydkzj" transform="translate(1339, 1110) scale(0.72, 0.72)" />
                  </g>
                  <g id="j1lj4fco" class="keySig">
                     <g id="k1ebl88b" class="keyAccid">
                        <use xlink:href="#E260-a1ydkzj" transform="translate(1984, 930) scale(0.72, 0.72)" />
                     </g>
                  </g>
                  <g id="l1pmqhin" class="meterSig">
                     <use xlink:href="#E084-a1ydkzj" transform="translate(2292, 750) scale(0.72, 0.72)" />
                     <use xlink:href="#E084-a1ydkzj" transform="translate(2292, 1110) scale(0.72, 0.72)" />
                  </g>
                  <g id="p1lwik0x" class="layer">
                     <g id="qjuisp0" class="note">
                        <g class="notehead">
                           <use xlink:href="#E0A4-a1ydkzj" transform="translate(2852, 840) scale(0.72, 0.72)" />
                        </g>
                        <g id="oayxbi3" class="stem">
                           <path d="M2861 868 L2861 1470" stroke-width="18" />
                        </g>
                        <g id="r1f9jyfg" class="verse">
                           <title class="labelAttr">1</title>
                           <g id="s11ymtaq" class="syl">
                              <text x="2768" y="1834" font-size="0px">
                                 <tspan id="t82uz5e" class="text">
                                    <tspan font-size="378px">Pur</tspan>
                                 </tspan>
                              </text>
                           </g>
                        </g>
                     </g>
                     <g id="u1eflr8w" class="note">
                        <g class="notehead">
                           <use xlink:href="#E0A4-a1ydkzj" transform="translate(3669, 840) scale(0.72, 0.72)" />
                        </g>
                        <g id="p1gvi4c9" class="stem">
                           <path d="M3678 868 L3678 1470" stroke-width="18" />
                        </g>
                        <g id="v4ztj3l" class="verse">
                           <title class="labelAttr">1</title>
                           <g id="w17cdcww" class="syl">
                              <text x="3585" y="1834" font-size="0px">
                                 <tspan id="x11ybc84" class="text">
                                    <tspan font-size="378px">di</tspan>
                                 </tspan>
                              </text>
                              <rect x="4099" y="1739" height="20" width="84" />
                           </g>
                        </g>
                     </g>
                     <g id="y3jz056" class="note">
                        <g class="notehead">
                           <use xlink:href="#E0A4-a1ydkzj" transform="translate(4487, 930) scale(0.72, 0.72)" />
                        </g>
                        <g id="q121b21v" class="stem">
                           <path d="M4496 958 L4496 1530" stroke-width="18" />
                        </g>
                        <g id="zss2zez" class="accid" />
                        <g id="aj1sv6k" class="verse">
                           <title class="labelAttr">1</title>
                           <g id="b13syi46" class="syl">
                              <text x="4403" y="1834" font-size="0px">
                                 <tspan id="cvckccf" class="text">
                                    <tspan font-size="378px">ces</tspan>
                                 </tspan>
                              </text>
                              <rect x="5011" y="1739" height="20" width="84" />
                           </g>
                        </g>
                     </g>
                     <g id="d1ahgd04" class="note">
                        <g class="notehead">
                           <use xlink:href="#E0A4-a1ydkzj" transform="translate(5304, 1020) scale(0.72, 0.72)" />
                        </g>
                        <g id="r1at5aju" class="stem">
                           <path d="M5521 992 L5521 390" stroke-width="18" />
                        </g>
                        <g id="e1jk15ll" class="verse">
                           <title class="labelAttr">1</title>
                           <g id="foq5qyx" class="syl">
                              <text x="5220" y="1834" font-size="0px">
                                 <tspan id="g1wbyyfc" class="text">
                                    <tspan font-size="378px">ti,</tspan>
                                 </tspan>
                              </text>
                           </g>
                        </g>
                     </g>
                  </g>
               </g>
               <g id="m1dxlvms" class="dir">
                  <text x="2852" y="258" font-size="0px">
                     <tspan id="n15ywx9l" class="text">
                        <tspan font-size="378px">Allegretto grazioso</tspan>
                     </tspan>
                  </text>
               </g>
               <g id="o187rfjq" class="tempo" xml:lang="it">
                  <text x="2290" y="525" font-size="0px" />
               </g>
               <g id="k15y5ogp" class="barLine">
                  <path d="M6121 570 L6121 1290" stroke-width="27" />
               </g>
            </g>
            <g id="he2u770" class="measure">
               <g id="q1v1k2b6" class="staff">
                  <path d="M6134 570 L9204 570" stroke-width="13" />
                  <path d="M6134 750 L9204 750" stroke-width="13" />
                  <path d="M6134 930 L9204 930" stroke-width="13" />
                  <path d="M6134 1110 L9204 1110" stroke-width="13" />
                  <path d="M6134 1290 L9204 1290" stroke-width="13" />
                  <g id="r94xztr" class="layer">
                     <g id="s1vjbvue" class="note">
                        <g class="notehead">
                           <use xlink:href="#E0A3-a1ydkzj" transform="translate(6312, 1110) scale(0.72, 0.72)" />
                        </g>
                        <g id="s1ocu4zi" class="stem">
                           <path d="M6529 1082 L6529 480" stroke-width="18" />
                        </g>
                        <g id="t81pat2" class="verse">
                           <title class="labelAttr">1</title>
                           <g id="u3bsacs" class="syl">
                              <text x="6228" y="1834" font-size="0px">
                                 <tspan id="v1o2a6bu" class="text">
                                    <tspan font-size="378px">o</tspan>
                                 </tspan>
                              </text>
                           </g>
                        </g>
                     </g>
                     <g id="w18rvtym" class="note">
                        <g class="notehead">
                           <use xlink:href="#E0A4-a1ydkzj" transform="translate(7556, 1200) scale(0.72, 0.72)" />
                        </g>
                        <g id="t1wtj30q" class="stem">
                           <path d="M7773 1172 L7773 570" stroke-width="18" />
                        </g>
                        <g id="xn4ukzd" class="verse">
                           <title class="labelAttr">1</title>
                           <g id="y2k8f38" class="syl">
                              <text x="7472" y="1834" font-size="0px">
                                 <tspan id="zbis33y" class="text">
                                    <tspan font-size="378px">boc</tspan>
                                 </tspan>
                              </text>
                              <rect x="8111" y="1739" height="20" width="84" />
                           </g>
                        </g>
                     </g>
                     <g id="a1w5q6qx" class="note">
                        <g class="notehead">
                           <use xlink:href="#E0A4-a1ydkzj" transform="translate(8373, 1020) scale(0.72, 0.72)" />
                        </g>
                        <g id="uj0rl05" class="stem">
                           <path d="M8590 992 L8590 390" stroke-width="18" />
                        </g>
                        <g id="b49u1l7" class="verse">
                           <title class="labelAttr">1</title>
                           <g id="c15tama1" class="syl">
                              <text x="8289" y="1834" font-size="0px">
                                 <tspan id="d1akcy6a" class="text">
                                    <tspan font-size="378px">ca</tspan>
                                 </tspan>
                              </text>
                           </g>
                        </g>
                     </g>
                  </g>
               </g>
               <g id="pap2xh4" class="barLine">
                  <path d="M9191 570 L9191 1290" stroke-width="27" />
               </g>
            </g>
            <g id="eijjotp" class="measure">
               <g id="n1fu1o8q" class="staff">
                  <path d="M9204 570 L12274 570" stroke-width="13" />
                  <path d="M9204 750 L12274 750" stroke-width="13" />
                  <path d="M9204 930 L12274 930" stroke-width="13" />
                  <path d="M9204 1110 L12274 1110" stroke-width="13" />
                  <path d="M9204 1290 L12274 1290" stroke-width="13" />
                  <g id="ohi59h4" class="layer">
                     <g id="pg7y96o" class="note">
                        <g class="notehead">
                           <use xlink:href="#E0A3-a1ydkzj" transform="translate(9382, 1110) scale(0.72, 0.72)" />
                        </g>
                        <g id="vw2ki7q" class="stem">
                           <path d="M9599 1082 L9599 480" stroke-width="18" />
                        </g>
                        <g id="qnn63mn" class="verse">
                           <title class="labelAttr">1</title>
                           <g id="rttxnws" class="syl">
                              <text x="9298" y="1834" font-size="0px">
                                 <tspan id="sheiivs" class="text">
                                    <tspan font-size="378px">bel</tspan>
                                 </tspan>
                              </text>
                              <rect x="10518" y="1739" height="20" width="84" />
                           </g>
                        </g>
                     </g>
                     <g id="t4wtm90" class="rest">
                        <use xlink:href="#E4E5-a1ydkzj" transform="translate(10626, 930) scale(0.72, 0.72)" />
                     </g>
                     <g id="ub9h6po" class="note">
                        <g class="notehead">
                           <use xlink:href="#E0A4-a1ydkzj" transform="translate(11443, 1110) scale(0.72, 0.72)" />
                        </g>
                        <g id="w1cvlfjb" class="stem">
                           <path d="M11660 1082 L11660 480" stroke-width="18" />
                        </g>
                        <g id="v1sl4xj3" class="verse">
                           <title class="labelAttr">1</title>
                           <g id="w15moh7b" class="syl">
                              <text x="11359" y="1834" font-size="0px">
                                 <tspan id="x1dihdvf" class="text">
                                    <tspan font-size="378px">la,</tspan>
                                 </tspan>
                              </text>
                           </g>
                        </g>
                     </g>
                  </g>
               </g>
               <g id="m3mjp5f" class="barLine">
                  <path d="M12261 570 L12261 1290" stroke-width="27" />
               </g>
            </g>
            <g id="yql85aj" class="measure">
               <g id="h11e7jod" class="staff">
                  <path d="M12274 570 L15734 570" stroke-width="13" />
                  <path d="M12274 750 L15734 750" stroke-width="13" />
                  <path d="M12274 930 L15734 930" stroke-width="13" />
                  <path d="M12274 1110 L15734 1110" stroke-width="13" />
                  <path d="M12274 1290 L15734 1290" stroke-width="13" />
                  <g id="iw4r7tc" class="layer">
                     <g id="j1ieqcwt" class="note">
                        <g class="notehead">
                           <use xlink:href="#E0A4-a1ydkzj" transform="translate(12452, 930) scale(0.72, 0.72)" />
                        </g>
                        <g id="xaeo7yq" class="stem">
                           <path d="M12461 958 L12461 1530" stroke-width="18" />
                        </g>
                        <g id="kpirheg" class="accid" />
                        <g id="l1clz8o8" class="verse">
                           <title class="labelAttr">1</title>
                           <g id="m1wm988w" class="syl">
                              <text x="12368" y="1834" font-size="0px">
                                 <tspan id="n15rtli3" class="text">
                                    <tspan font-size="378px">quel</tspan>
                                 </tspan>
                              </text>
                           </g>
                        </g>
                     </g>
                     <g id="on580na" class="note">
                        <g class="notehead">
                           <use xlink:href="#E0A4-a1ydkzj" transform="translate(13269, 930) scale(0.72, 0.72)" />
                        </g>
                        <g id="y1ejmnxw" class="stem">
                           <path d="M13278 958 L13278 1530" stroke-width="18" />
                        </g>
                        <g id="p5rd5p9" class="accid" />
                        <g id="q1cwxr75" class="verse">
                           <title class="labelAttr">1</title>
                           <g id="r15otwos" class="syl">
                              <text x="13185" y="1834" font-size="0px">
                                 <tspan id="sllxdmy" class="text">
                                    <tspan font-size="378px">so</tspan>
                                 </tspan>
                              </text>
                              <rect x="13720" y="1739" height="20" width="84" />
                           </g>
                        </g>
                     </g>
                     <g id="tovrp50" class="note">
                        <g class="notehead">
                           <use xlink:href="#E0A4-a1ydkzj" transform="translate(14087, 1020) scale(0.72, 0.72)" />
                        </g>
                        <g id="z1u4a7s1" class="stem">
                           <path d="M14304 992 L14304 390" stroke-width="18" />
                        </g>
                        <g id="u1lybb0z" class="verse">
                           <title class="labelAttr">1</title>
                           <g id="v1oqf1im" class="syl">
                              <text x="14003" y="1834" font-size="0px">
                                 <tspan id="wxjddui" class="text">
                                    <tspan font-size="378px">a</tspan>
                                 </tspan>
                              </text>
                              <rect x="14453" y="1739" height="20" width="84" />
                           </g>
                        </g>
                     </g>
                     <g id="x1ciqr8t" class="note">
                        <g class="notehead">
                           <use xlink:href="#E0A4-a1ydkzj" transform="translate(14904, 1110) scale(0.72, 0.72)" />
                        </g>
                        <g id="aw4goj0" class="stem">
                           <path d="M15121 1082 L15121 480" stroke-width="18" />
                        </g>
                        <g id="y1ij9oiw" class="verse">
                           <title class="labelAttr">1</title>
                           <g id="z1m2lghc" class="syl">
                              <text x="14820" y="1834" font-size="0px">
                                 <tspan id="azyaag7" class="text">
                                    <tspan font-size="378px">ve e</tspan>
                                 </tspan>
                              </text>
                           </g>
                        </g>
                     </g>
                  </g>
               </g>
               <g id="g1m0jl5o" class="barLine">
                  <path d="M15721 570 L15721 1290" stroke-width="27" />
               </g>
            </g>
            <g id="bkv8grd" class="measure">
               <g id="khhuyuq" class="staff">
                  <path d="M15734 570 L18804 570" stroke-width="13" />
                  <path d="M15734 750 L18804 750" stroke-width="13" />
                  <path d="M15734 930 L18804 930" stroke-width="13" />
                  <path d="M15734 1110 L18804 1110" stroke-width="13" />
                  <path d="M15734 1290 L18804 1290" stroke-width="13" />
                  <g id="l1xyzcmt" class="layer">
                     <g id="mrfpf46" class="note">
                        <g class="notehead">
                           <use xlink:href="#E0A4-a1ydkzj" transform="translate(15912, 1200) scale(0.72, 0.72)" />
                        </g>
                        <g id="bmf8fqh" class="stem">
                           <path d="M16129 1172 L16129 570" stroke-width="18" />
                        </g>
                        <g id="n18tgu1f" class="verse">
                           <title class="labelAttr">1</title>
                           <g id="ozqcgh1" class="syl">
                              <text x="15828" y="1834" font-size="0px">
                                 <tspan id="p1exehlx" class="text">
                                    <tspan font-size="378px">ca</tspan>
                                 </tspan>
                              </text>
                              <rect x="16362" y="1739" height="20" width="84" />
                           </g>
                        </g>
                     </g>
                     <g id="q1jv76ke" class="note">
                        <g class="notehead">
                           <use xlink:href="#E0A4-a1ydkzj" transform="translate(16729, 1290) scale(0.72, 0.72)" />
                        </g>
                        <g id="c626yvd" class="stem">
                           <path d="M16946 1262 L16946 660" stroke-width="18" />
                        </g>
                        <g id="ru44urb" class="verse">
                           <title class="labelAttr">1</title>
                           <g id="s1hrex0b" class="syl">
                              <text x="16645" y="1834" font-size="0px">
                                 <tspan id="twpnyl0" class="text">
                                    <tspan font-size="378px">ro</tspan>
                                 </tspan>
                              </text>
                           </g>
                        </g>
                     </g>
                     <g id="uxia6rf" class="note">
                        <g class="notehead">
                           <use xlink:href="#E0A3-a1ydkzj" transform="translate(17547, 1200) scale(0.72, 0.72)" />
                        </g>
                        <g id="dx64st7" class="stem">
                           <path d="M17764 1172 L17764 570" stroke-width="18" />
                        </g>
                        <g id="v1sz1jvk" class="verse">
                           <title class="labelAttr">1</title>
                           <g id="w16a4cr1" class="syl">
                              <text x="17463" y="1834" font-size="0px">
                                 <tspan id="x6s4b8w" class="text">
                                    <tspan font-size="378px">sì,</tspan>
                                 </tspan>
                              </text>
                           </g>
                        </g>
                     </g>
                  </g>
               </g>
               <g id="j16whvuc" class="barLine">
                  <path d="M18791 570 L18791 1290" stroke-width="27" />
               </g>
            </g>
         </g>
         <g id="q1al8trq" class="system">
            <g id="y989ows" class="measure">
               <g id="ggxh73h" class="mNum autogenerated">
                  <text y="2590" text-anchor="middle" font-size="0px">
                     <tspan id="hvqnof3" class="text">
                        <tspan font-size="302px">6</tspan>
                     </tspan>
                  </text>
               </g>
               <g id="huk0xn4" class="staff">
                  <path d="M0 2816 L4468 2816" stroke-width="13" />
                  <path d="M0 2996 L4468 2996" stroke-width="13" />
                  <path d="M0 3176 L4468 3176" stroke-width="13" />
                  <path d="M0 3356 L4468 3356" stroke-width="13" />
                  <path d="M0 3536 L4468 3536" stroke-width="13" />
                  <g id="u1qufsvi" class="clef">
                     <use xlink:href="#E050-a1ydkzj" transform="translate(90, 3356) scale(0.72, 0.72)" />
                  </g>
                  <g id="vdubvvd" class="keySig">
                     <g id="wp45idl" class="keyAccid">
                        <use xlink:href="#E260-a1ydkzj" transform="translate(735, 3176) scale(0.72, 0.72)" />
                     </g>
                  </g>
                  <g id="im51juk" class="layer">
                     <g id="jqcjj9y" class="note">
                        <g class="notehead">
                           <use xlink:href="#E0A4-a1ydkzj" transform="translate(1147, 3266) scale(0.72, 0.72)" />
                        </g>
                        <g id="e1259xcj" class="stem">
                           <path d="M1364 3238 L1364 2636" stroke-width="18" />
                        </g>
                        <g id="k15va47b" class="verse">
                           <title class="labelAttr">1</title>
                           <g id="l1x157pt" class="syl">
                              <text x="1063" y="4080" font-size="0px">
                                 <tspan id="m8q3pin" class="text">
                                    <tspan font-size="378px">che</tspan>
                                 </tspan>
                              </text>
                           </g>
                        </g>
                     </g>
                     <g id="n15hlu7t" class="note">
                        <g class="notehead">
                           <use xlink:href="#E0A4-a1ydkzj" transform="translate(1974, 3356) scale(0.72, 0.72)" />
                        </g>
                        <g id="fekwef7" class="stem">
                           <path d="M2191 3328 L2191 2726" stroke-width="18" />
                        </g>
                        <g id="o16iox18" class="verse">
                           <title class="labelAttr">1</title>
                           <g id="pieodjc" class="syl">
                              <text x="1890" y="4080" font-size="0px">
                                 <tspan id="q1lj3ugw" class="text">
                                    <tspan font-size="378px">fa</tspan>
                                 </tspan>
                              </text>
                           </g>
                        </g>
                     </g>
                     <g id="r44wmvz" class="note">
                        <g class="notehead">
                           <use xlink:href="#E0A4-a1ydkzj" transform="translate(2801, 3176) scale(0.72, 0.72)" />
                        </g>
                        <g id="gu3you4" class="stem">
                           <path d="M2810 3204 L2810 3776" stroke-width="18" />
                        </g>
                        <g id="s3r7jt6" class="accid" />
                        <g id="t1wjqwks" class="verse">
                           <title class="labelAttr">1</title>
                           <g id="u60nceu" class="syl">
                              <text x="2717" y="4080" font-size="0px">
                                 <tspan id="v21otdp" class="text">
                                    <tspan font-size="378px">tut</tspan>
                                 </tspan>
                              </text>
                              <rect x="3289" y="3985" height="20" width="84" />
                           </g>
                        </g>
                     </g>
                     <g id="w1v04oja" class="note">
                        <g class="notehead">
                           <use xlink:href="#E0A4-a1ydkzj" transform="translate(3628, 3266) scale(0.72, 0.72)" />
                        </g>
                        <g id="h1v37owb" class="stem">
                           <path d="M3845 3238 L3845 2636" stroke-width="18" />
                        </g>
                        <g id="x1ucuif9" class="verse">
                           <title class="labelAttr">1</title>
                           <g id="y1q09wbz" class="syl">
                              <text x="3544" y="4080" font-size="0px">
                                 <tspan id="zvewx12" class="text">
                                    <tspan font-size="378px">to il</tspan>
                                 </tspan>
                              </text>
                           </g>
                        </g>
                     </g>
                  </g>
               </g>
               <g id="ghe6lyg" class="barLine">
                  <path d="M4455 2816 L4455 3536" stroke-width="27" />
               </g>
            </g>
            <g id="ak66nnr" class="measure">
               <g id="j1mds9m1" class="staff">
                  <path d="M4468 2816 L7574 2816" stroke-width="13" />
                  <path d="M4468 2996 L7574 2996" stroke-width="13" />
                  <path d="M4468 3176 L7574 3176" stroke-width="13" />
                  <path d="M4468 3356 L7574 3356" stroke-width="13" />
                  <path d="M4468 3536 L7574 3536" stroke-width="13" />
                  <g id="k1divtu9" class="layer">
                     <g id="l1ws86tw" class="note">
                        <g class="notehead">
                           <use xlink:href="#E0A4-a1ydkzj" transform="translate(4648, 3356) scale(0.72, 0.72)" />
                        </g>
                        <g id="i1aw30xk" class="stem">
                           <path d="M4865 3328 L4865 2726" stroke-width="18" />
                        </g>
                        <g id="mb2ccv1" class="verse">
                           <title class="labelAttr">1</title>
                           <g id="n1xopdwz" class="syl">
                              <text x="4564" y="4080" font-size="0px">
                                 <tspan id="o1pccxy" class="text">
                                    <tspan font-size="378px">mio</tspan>
                                 </tspan>
                              </text>
                           </g>
                        </g>
                     </g>
                     <g id="p6zi3ht" class="note">
                        <g class="notehead">
                           <use xlink:href="#E0A4-a1ydkzj" transform="translate(5475, 3446) scale(0.72, 0.72)" />
                        </g>
                        <g id="j1aadh9f" class="stem">
                           <path d="M5692 3418 L5692 2816" stroke-width="18" />
                        </g>
                        <g id="qjp33kj" class="verse">
                           <title class="labelAttr">1</title>
                           <g id="r1rwtgz5" class="syl">
                              <text x="5391" y="4080" font-size="0px">
                                 <tspan id="sxnga89" class="text">
                                    <tspan font-size="378px">pia</tspan>
                                 </tspan>
                              </text>
                              <rect x="5897" y="3985" height="20" width="84" />
                           </g>
                        </g>
                     </g>
                     <g id="t2al8o6" class="note">
                        <g class="notehead">
                           <use xlink:href="#E0A3-a1ydkzj" transform="translate(6302, 3446) scale(0.72, 0.72)" />
                        </g>
                        <g id="k1owvpx7" class="stem">
                           <path d="M6519 3418 L6519 2816" stroke-width="18" />
                        </g>
                        <g id="u6096lv" class="verse">
                           <title class="labelAttr">1</title>
                           <g id="v1micgho" class="syl">
                              <text x="6024" y="4080" font-size="0px">
                                 <tspan id="w1rqumm" class="text">
                                    <tspan font-size="378px">cer.</tspan>
                                 </tspan>
                              </text>
                           </g>
                        </g>
                     </g>
                  </g>
               </g>
               <g id="i11yynk4" class="barLine">
                  <path d="M7561 2816 L7561 3536" stroke-width="27" />
               </g>
            </g>
            <g id="x1axdqhu" class="measure">
               <g id="ga92caa" class="staff">
                  <path d="M7574 2816 L9836 2816" stroke-width="13" />
                  <path d="M7574 2996 L9836 2996" stroke-width="13" />
                  <path d="M7574 3176 L9836 3176" stroke-width="13" />
                  <path d="M7574 3356 L9836 3356" stroke-width="13" />
                  <path d="M7574 3536 L9836 3536" stroke-width="13" />
                  <g id="hlzgnus" class="layer">
                     <g id="i1dbsm74" class="note">
                        <g class="notehead">
                           <use xlink:href="#E0A2-a1ydkzj" transform="translate(7754, 3446) scale(0.72, 0.72)" />
                        </g>
                     </g>
                  </g>
               </g>
               <g id="f125po8c" class="barLine">
                  <path d="M9661 2816 L9661 3536" stroke-width="27" />
                  <path d="M9791 2816 L9791 3536" stroke-width="90" />
               </g>
            </g>
            <g id="s1gkoqe3" class="systemMilestoneEnd jnvym2n" />
            <g id="t1izj1th" class="systemMilestoneEnd n244yj3" />
         </g>
         <g id="u6sqy3y" class="pageMilestoneEnd l1yvi97v" />
         <g id="vvaij7e" class="pageMilestoneEnd k1qt375c" />
      </g>
   </svg>
</svg>
